<?xml version="1.0" encoding="UTF-8"?><svg id="b" xmlns="http://www.w3.org/2000/svg" viewBox="0 0 300.48 304.92"><g id="c"><g id="d"><path d="m213.6,135.12s-14.33,10.54-24.63,29.25l13.08.39c-3.4,7.94-15.6,31.95-38.43,31.95h-.08c-3.98,0-7.2-3.22-7.2-7.2v-70.16c0-4.42,3.58-8,8-8h31.52c1.1,0,1.99-.89,1.99-1.99v-10.39c0-1.1-.89-1.99-1.99-1.99h-37.52c-1.1,0-2-.89-2-2v-18.11c6.25-2.44,10.68-8.54,10.66-15.66-.03-9.29-7.7-16.83-16.99-16.71-9.15.12-16.53,7.58-16.53,16.76,0,7.1,4.42,13.17,10.66,15.61v18.11c0,1.1-.89,2-2,2h-37.27c-1.1,0-1.99.89-1.99,1.99v10.39c0,1.1.89,1.99,1.99,1.99h31.26c4.42,0,8,3.58,8,8v70.07c0,3.99-3.21,7.26-7.21,7.29h-.08c-22.83,0-35.02-24.01-38.43-31.95l13.09-.39c-10.31-18.71-24.64-29.25-24.64-29.25-9.12,13.62-11.96,38.49-11.96,38.49l11.47-6.02c1.92,8.33,8.72,29.03,30.68,43.67,3.34,2.23,7.02,4.32,11.1,6.2.67.31,1.36.62,2.06.92,10.26,4.42,16.85,9.67,19.13,11.64.51.44,1.26.44,1.77,0,2.28-1.97,8.87-7.21,19.13-11.64.7-.3,1.39-.61,2.06-.92,4.08-1.88,7.77-3.97,11.1-6.2,21.96-14.64,28.76-35.34,30.68-43.67l11.47,6.02s-2.84-24.87-11.96-38.49Zm-63.36-65.5c-4.62,0-8.35-3.74-8.35-8.35s3.73-8.35,8.35-8.35,8.35,3.74,8.35,8.35-3.74,8.35-8.35,8.35Z" style="fill:#fff; stroke-width:0px;"/></g><path d="m194.48,110.96h-17.97c-.38-.12-.75-.27-1.12-.43,14.32-1.74,19.62-2.46,18.92-13.54l3.13.79c.74,8.42,1.31,12.43-2.96,13.18Z" style="fill:#d1d3d4; stroke-width:0px;"/><path d="m155.28,75.94h-10.48c-.38-.12-.75-.27-1.12-.43,14.32-1.74,21.89-8.31,21.19-19.39,1.37,1.91.86.82,1.08,3.32.75,8.42-4.31,14.37-10.67,16.5Z" style="fill:#d1d3d4; stroke-width:0px;"/><path d="m213.6,135.12s12.06,28.61,11.96,36.67,0,0,0,0c0,0-7.87-.6-11.47-4.2-3.01,11.41-8.83,36.24-49.59,53.53,0,0-8.75,5.32-14.02,9.22-6.58,4.86,0,0,0,0l-.24-8.3s2.9-4.39,12.08-7.88c12.69-4.84,33.77-15.56,41.72-31.43s6.73-23.29,6.73-23.29l7.38,3.79-4.54-28.11" style="fill:#d1d3d4; stroke-width:0px;"/><path d="m128.16,218.01v17.86c-2.05.14-3.91.3-5.57.45-1.86.17-3.7.38-5.53.65v-25.71c3.34,2.43,7.02,4.7,11.1,6.75Z" style="fill:#2d383e; stroke-width:0px;"/><path d="m115.57,238.71v-30.39l2.38,1.73c3.39,2.47,7.06,4.7,10.89,6.62l.83.42v20.18l-1.4.1c-2.04.14-3.89.3-5.54.45-1.96.18-3.74.39-5.44.64l-1.72.25Zm3-24.57v21.11c1.24-.16,2.52-.3,3.89-.42,1.29-.12,2.69-.24,4.21-.35v-15.54c-2.8-1.45-5.52-3.05-8.1-4.79Z" style="fill:#231f20; stroke-width:0px;"/><path d="m183.41,211.26v25.72c-1.99-.29-4-.53-6.03-.71-1.53-.14-3.23-.28-5.07-.41v-17.85c4.08-2.05,7.77-4.32,11.1-6.75Z" style="fill:#2d383e; stroke-width:0px;"/><path d="m184.92,238.72l-1.72-.25c-2.02-.29-4.02-.53-5.95-.7-1.52-.14-3.21-.28-5.04-.41l-1.39-.1v-20.17l.83-.42c3.87-1.94,7.53-4.17,10.89-6.62l2.38-1.74v30.41Zm-11.1-4.25c1.32.1,2.56.21,3.71.31,1.43.13,2.91.29,4.39.48v-21.12c-2.57,1.73-5.28,3.33-8.1,4.79v15.54Z" style="fill:#231f20; stroke-width:0px;"/><g id="e"><path d="m150.24,231.85c-.66,0-1.32-.23-1.86-.7-2.31-1.99-8.77-7.1-18.74-11.39-.71-.3-1.41-.62-2.1-.94-3.95-1.82-7.75-3.94-11.3-6.31-20.91-13.94-28.36-33.32-30.84-42.7l-12.29,6.45.32-2.81c.12-1.03,2.99-25.39,12.2-39.16l.87-1.3,1.26.93c.6.44,14.71,10.95,25.07,29.73l1.18,2.15-13.3.4c4.17,8.88,15.88,29.02,36.14,29.02,3.22-.02,5.79-2.62,5.79-5.79v-70.07c0-3.58-2.92-6.5-6.5-6.5h-31.26c-1.92,0-3.49-1.56-3.49-3.49v-10.39c0-1.92,1.56-3.49,3.49-3.49h37.27c.27,0,.5-.22.5-.5v-17.12c-6.51-2.97-10.66-9.38-10.66-16.6,0-9.94,8.08-18.13,18.01-18.26,4.89-.07,9.53,1.8,13.04,5.26,3.51,3.45,5.45,8.05,5.47,12.94.02,7.14-4.22,13.7-10.66,16.66v17.12c0,.27.22.5.5.5h37.52c1.92,0,3.49,1.56,3.49,3.49v10.39c0,1.92-1.56,3.49-3.49,3.49h-31.52c-3.58,0-6.5,2.92-6.5,6.5v70.16c0,3.14,2.56,5.7,5.7,5.7,20.37,0,32.06-20.14,36.22-29.02l-13.29-.4,1.18-2.15c10.34-18.78,24.46-29.3,25.06-29.73l1.26-.93.87,1.3c9.22,13.76,12.09,38.12,12.2,39.16l.32,2.81-12.29-6.45c-2.48,9.38-9.93,28.76-30.84,42.7-3.51,2.35-7.32,4.48-11.3,6.31-.68.31-1.38.63-2.1.94-9.96,4.29-16.43,9.4-18.74,11.39-.54.46-1.2.7-1.86.7Zm-62.83-66.49l.44,1.89c1.86,8.07,8.51,28.4,30.05,42.76,3.42,2.28,7.09,4.33,10.9,6.09.66.3,1.34.61,2.02.9,10.22,4.41,16.93,9.66,19.42,11.8,2.5-2.14,9.2-7.39,19.42-11.8.69-.29,1.37-.6,2.02-.9,3.84-1.77,7.51-3.82,10.9-6.08,21.54-14.36,28.19-34.69,30.05-42.76l.44-1.89,10.61,5.57c-1-6.57-4.03-23.02-10.45-33.6-3.51,2.87-13.64,11.85-21.72,25.62l12.79.38-.87,2.02c-3.3,7.71-15.93,32.86-39.81,32.86-4.88,0-8.78-3.9-8.78-8.7v-70.16c0-5.24,4.26-9.5,9.5-9.5h31.52c.27,0,.49-.22.49-.49v-10.39c0-.27-.22-.49-.49-.49h-37.52c-1.93,0-3.5-1.57-3.5-3.5v-19.14l.95-.37c5.82-2.27,9.72-8,9.71-14.26-.01-4.09-1.64-7.93-4.57-10.82-2.94-2.89-6.84-4.46-10.9-4.4-8.3.11-15.05,6.95-15.05,15.26,0,6.33,3.81,11.91,9.71,14.21l.95.37v19.14c0,1.93-1.57,3.5-3.5,3.5h-37.27c-.27,0-.49.22-.49.49v10.39c0,.27.22.49.49.49h31.26c5.24,0,9.5,4.26,9.5,9.5v70.07c0,4.81-3.9,8.75-8.7,8.79-23.93,0-36.59-25.15-39.9-32.86l-.87-2.03,12.8-.38c-8.09-13.77-18.22-22.75-21.73-25.62-6.42,10.58-9.44,27.03-10.45,33.6l10.61-5.57Zm62.83-94.24c-5.43,0-9.85-4.42-9.85-9.85s4.42-9.85,9.85-9.85,9.85,4.42,9.85,9.85-4.42,9.85-9.85,9.85Zm0-16.7c-3.78,0-6.85,3.07-6.85,6.85s3.07,6.85,6.85,6.85,6.85-3.07,6.85-6.85-3.07-6.85-6.85-6.85Z" style="fill:#231f20; stroke-width:0px;"/></g><path d="m217.55,256.03v4.38H82.93v-4.38c0-9.02,8-12.27,20.15-16,4.48-1.38,9.17-2.39,13.98-3.06,1.83-.27,3.67-.48,5.53-.65,1.66-.15,3.52-.31,5.57-.45,6.04-.45,13.64-.82,22.08-.82s16.03.37,22.07.81c1.84.13,3.54.27,5.07.41,2.03.18,4.04.42,6.03.71,5.35.77,10.55,1.94,15.47,3.55,11.45,3.73,18.67,6.81,18.67,15.5Z" style="fill:#fff; stroke-width:0px;"/><path d="m219.05,261.91H81.44v-5.88c0-10.14,8.79-13.62,21.21-17.43,4.45-1.37,9.23-2.42,14.21-3.11,1.75-.26,3.58-.47,5.6-.66,1.67-.15,3.54-.31,5.6-.45,7.34-.55,14.8-.82,22.18-.82s14.76.27,22.18.81c1.85.13,3.56.27,5.1.41,1.98.18,4.04.42,6.11.72,5.56.8,10.85,2.01,15.72,3.61,11.54,3.76,19.7,7.17,19.7,16.93v5.88Zm-134.62-3h131.62v-2.88c0-7.17-5.2-10.02-17.63-14.07-4.71-1.54-9.83-2.71-15.22-3.49-2.02-.29-4.02-.53-5.95-.7-1.52-.14-3.21-.28-5.04-.41-7.35-.53-14.74-.81-21.96-.81s-14.7.27-21.97.82c-2.05.14-3.9.3-5.55.45-1.96.18-3.74.39-5.44.64-4.83.67-9.46,1.69-13.76,3.01-13.2,4.05-19.09,7.12-19.09,14.57v2.88Z" style="fill:#231f20; stroke-width:0px;"/></g></svg>