<?xml version="1.0" encoding="UTF-8"?><svg id="b" xmlns="http://www.w3.org/2000/svg" viewBox="0 0 300.48 304.92"><path d="m212.09,109.13c0,1.34-4,11.7-13.32,13.51l13.21-.45.63-12.68" style="fill:#d1d3d4; stroke-width:0px;"/><path d="m127.86,136.7v-6.99c.31-6.09-28.01-7.81-37.41-7.06-1.42,0-2.57-.59-2.57-1.33v-13.25c0-.63.86-1.17,2.05-1.3.01-.03,45.62-4.44,45.62-4.51-29.01-13.59-20.78-59.72,11.51-62.09,35.63-3.72,49.91,46.7,17.88,62.09,0,.04,45.6,4.5,45.61,4.51,1.2.13,2.05.67,2.05,1.3v13.25c0,.74-1.15,1.33-2.56,1.33-9.42-.73-37.7.95-37.41,7.06v6.98c.37,9.71,10.18,17.08,12.74,19.21,10.62,8.81,30.21,1.25,31.05,32.3H84.06c.9-30.95,20.21-23.49,30.84-32.12,2.64-2.14,12.57-9.66,12.96-19.38Z" style="fill:#fff; stroke-width:0px;"/><path d="m217.96,189.7H82.52l.04-1.54c.66-22.81,11.36-25.91,20.81-28.64,3.93-1.14,7.65-2.22,10.59-4.6l.41-.33c2.88-2.31,11.63-9.33,11.99-17.92v-6.96c.01-.26-.12-.49-.39-.75-3.98-3.86-25.9-5.57-35.4-4.82h-.12c-2.36,0-4.07-1.19-4.07-2.83v-13.25c0-1.45,1.36-2.57,3.39-2.79v.07c.8-.15,2.17-.29,4.6-.53l10.98-1.07c8.55-.84,19.31-1.89,25.34-2.49-11.08-7.28-16.45-20.37-13.83-34.59,2.93-15.88,14.74-26.86,30.1-27.99,19.3-2.02,31.95,11.13,35.89,25.05,3.58,12.65.71,28.51-13.05,37.52,6.99.7,20.33,2.01,29.29,2.89,7.64.75,10.47,1.03,11.62,1.23v-.08c2.04.22,3.4,1.34,3.4,2.79v13.25c0,1.64-1.71,2.83-4.06,2.83h-.12c-9.52-.74-31.46.98-35.4,4.81-.27.26-.4.49-.39.68v7.05c.32,8.37,8.53,15.06,11.62,17.58l.58.47c2.96,2.45,6.73,3.55,10.73,4.72,9.49,2.76,20.24,5.9,20.86,28.69l.04,1.54Zm-132.34-3h129.24c-.95-19.2-9.55-21.71-18.64-24.35-4.12-1.2-8.38-2.44-11.81-5.29l-.55-.46c-3.38-2.76-12.35-10.08-12.73-19.85v-7.04c-.04-.68.16-1.8,1.3-2.91,5.62-5.45,30.68-6.18,37.66-5.65.46,0,.81-.1,1.01-.19v-12.52c-.14-.06-.38-.14-.71-.17h-.06c-.54-.06-5.42-.54-11.54-1.14-6.76-.66-15.26-1.5-22.07-2.17-3.41-.34-6.39-.63-8.52-.84l-2.51-.25c-1.11-.11-2.25-.23-2.25-1.59v-.94l.85-.41c15.79-7.58,19.24-23.73,15.66-36.36-3.6-12.71-15.13-24.72-32.74-22.88-17,1.25-25.38,14.54-27.41,25.55-2.04,11.05,1.03,26.5,16.38,33.69l.86.4v.95c0,1.36-1.21,1.49-2.09,1.58-.49.05-1.2.12-2.1.21-1.79.18-4.31.43-7.24.72-5.86.58-13.38,1.31-19.99,1.96-7,.68-13.64,1.33-15.19,1.49l-.36.04c-.33.04-.57.11-.71.18v12.52c.2.09.55.18,1.02.19,7.66-.59,32.28.42,37.67,5.66,1.14,1.11,1.33,2.23,1.29,2.97v6.94s0,.03,0,.03c-.4,9.96-9.97,17.64-13.12,20.16l-.4.32c-3.41,2.77-7.59,3.98-11.64,5.15-9.04,2.62-17.6,5.1-18.58,24.3Z" style="fill:#231f20; stroke-width:0px;"/><path d="m167.22,101.06c-.91.64-1.91,1.16-2.95,1.57l-20.31-.08c28.29-5.04,33.1-15.84,37.94-30.87,1.98,4.9-1.79,20.37-14.68,29.38Z" style="fill:#d1d3d4; stroke-width:0px;"/><path d="m164.71,130.91l7.75-2.99c-2.96,12.02,8.61,25.53,12.91,27.98,6.93,3.94,14.49,7.07,17.36,7.8-23.93,2.73-32.28,4.51-38.02-32.79Z" style="fill:#e6e7e8; stroke-width:0px;"/><path d="m217.96,189.7H82.52l.04-1.54c.66-22.81,11.36-25.91,20.81-28.64,3.93-1.14,7.65-2.22,10.59-4.6l.41-.33c2.88-2.31,11.63-9.33,11.99-17.92v-6.96c.01-.26-.12-.49-.39-.75-3.98-3.86-25.9-5.57-35.4-4.82h-.12c-2.36,0-4.07-1.19-4.07-2.83v-13.25c0-1.45,1.36-2.57,3.39-2.79v.07c.8-.15,2.17-.29,4.6-.53l10.98-1.07c8.55-.84,19.31-1.89,25.34-2.49-11.08-7.28-16.45-20.37-13.83-34.59,2.93-15.88,14.74-26.86,30.1-27.99,19.3-2.02,31.95,11.13,35.89,25.05,3.58,12.65.71,28.51-13.05,37.52,6.99.7,20.33,2.01,29.29,2.89,7.64.75,10.47,1.03,11.62,1.23v-.08c2.04.22,3.4,1.34,3.4,2.79v13.25c0,1.64-1.71,2.83-4.06,2.83h-.12c-9.52-.74-31.46.98-35.4,4.81-.27.26-.4.49-.39.68v7.05c.32,8.37,8.53,15.06,11.62,17.58l.58.47c2.96,2.45,6.73,3.55,10.73,4.72,9.49,2.76,20.24,5.9,20.86,28.69l.04,1.54Zm-132.34-3h129.24c-.95-19.2-9.55-21.71-18.64-24.35-4.12-1.2-8.38-2.44-11.81-5.29l-.55-.46c-3.38-2.76-12.35-10.08-12.73-19.85v-7.04c-.04-.68.16-1.8,1.3-2.91,5.62-5.45,30.68-6.18,37.66-5.65.46,0,.81-.1,1.01-.19v-12.52c-.14-.06-.38-.14-.71-.17h-.06c-.54-.06-5.42-.54-11.54-1.14-6.76-.66-15.26-1.5-22.07-2.17-3.41-.34-6.39-.63-8.52-.84l-2.51-.25c-1.11-.11-2.25-.23-2.25-1.59v-.94l.85-.41c15.79-7.58,19.24-23.73,15.66-36.36-3.6-12.71-15.13-24.72-32.74-22.88-17,1.25-25.38,14.54-27.41,25.55-2.04,11.05,1.03,26.5,16.38,33.69l.86.4v.95c0,1.36-1.21,1.49-2.09,1.58-.49.05-1.2.12-2.1.21-1.79.18-4.31.43-7.24.72-5.86.58-13.38,1.31-19.99,1.96-7,.68-13.64,1.33-15.19,1.49l-.36.04c-.33.04-.57.11-.71.18v12.52c.2.09.55.18,1.02.19,7.66-.59,32.28.42,37.67,5.66,1.14,1.11,1.33,2.23,1.29,2.97v6.94s0,.03,0,.03c-.4,9.96-9.97,17.64-13.12,20.16l-.4.32c-3.41,2.77-7.59,3.98-11.64,5.15-9.04,2.62-17.6,5.1-18.58,24.3Z" style="fill:#231f20; stroke-width:0px;"/><path d="m112.04,114.95h77.52v7.3h-77.52c-.55,0-1-.45-1-1v-5.3c0-.55.45-1,1-1Z" style="fill:#f1f2f2; stroke-width:0px;"/><path d="m191.06,123.75h-79.02c-1.38,0-2.5-1.12-2.5-2.5v-5.3c0-1.38,1.12-2.5,2.5-2.5h79.02v10.3Zm-78.52-3h75.52v-4.3h-75.52v4.3Z" style="fill:#231f20; stroke-width:0px;"/><rect x="110.91" y="188.86" width="78.65" height="10.51" rx="4.23" ry="4.23" style="fill:#414042; stroke-width:0px;"/><path d="m185.33,200.87h-70.19c-3.16,0-5.73-2.57-5.73-5.73v-2.05c0-3.16,2.57-5.73,5.73-5.73h70.19c3.16,0,5.73,2.57,5.73,5.73v2.05c0,3.16-2.57,5.73-5.73,5.73Zm-70.19-10.51c-1.5,0-2.73,1.22-2.73,2.73v2.05c0,1.5,1.22,2.73,2.73,2.73h70.19c1.5,0,2.73-1.22,2.73-2.73v-2.05c0-1.5-1.22-2.73-2.73-2.73h-70.19Z" style="fill:#231f20; stroke-width:0px;"/><path d="m142.39,108.92h15.69c.55,0,1,.45,1,1v108.56h-17.69v-108.56c0-.55.45-1,1-1Z" style="fill:#f1f2f2; stroke-width:0px;"/><path d="m160.58,219.98h-20.69v-110.06c0-1.38,1.12-2.5,2.5-2.5h15.69c1.38,0,2.5,1.12,2.5,2.5v110.06Zm-17.69-3h14.69v-106.56h-14.69v106.56Z" style="fill:#231f20; stroke-width:0px;"/><rect x="141.39" y="108.92" width="17.69" height="19" rx="1" ry="1" style="fill:#f1f2f2; stroke-width:0px;"/><path d="m158.08,129.42h-15.69c-1.38,0-2.5-1.12-2.5-2.5v-17c0-1.38,1.12-2.5,2.5-2.5h15.69c1.38,0,2.5,1.12,2.5,2.5v17c0,1.38-1.12,2.5-2.5,2.5Zm-15.19-3h14.69v-16h-14.69v16Z" style="fill:#231f20; stroke-width:0px;"/><rect x="149.75" y="108.92" width="9.33" height="109.56" style="fill:#d1d3d4; stroke-width:0px;"/><path d="m160.58,219.98h-20.69v-110.06c0-1.38,1.12-2.5,2.5-2.5h15.69c1.38,0,2.5,1.12,2.5,2.5v110.06Zm-17.69-3h14.69v-106.56h-14.69v106.56Z" style="fill:#231f20; stroke-width:0px;"/><path d="m158.08,129.42h-15.69c-1.38,0-2.5-1.12-2.5-2.5v-17c0-1.38,1.12-2.5,2.5-2.5h15.69c1.38,0,2.5,1.12,2.5,2.5v17c0,1.38-1.12,2.5-2.5,2.5Zm-15.19-3h14.69v-16h-14.69v16Z" style="fill:#231f20; stroke-width:0px;"/><path d="m138.92,248.28h22.64l4.57,6.52c1.16,2.95-1.01,6.15-4.19,6.15h-23.42c-3.17,0-5.35-3.2-4.19-6.15l4.57-6.52Z" style="fill:#2d383e; stroke-width:0px;"/><path d="m161.94,262.45h-23.42c-1.99,0-3.84-.98-4.96-2.62-1.12-1.64-1.35-3.73-.62-5.58l.17-.31,5.02-7.16h24.2l5.19,7.47c.73,1.85.5,3.93-.62,5.58-1.12,1.64-2.97,2.62-4.96,2.62Zm-26.26-6.95c-.3.9-.17,1.85.37,2.64.57.83,1.47,1.31,2.48,1.31h23.42c1.01,0,1.91-.48,2.48-1.31.54-.79.67-1.74.37-2.64l-4.01-5.73h-21.08l-4.01,5.73Z" style="fill:#231f20; stroke-width:0px;"/><rect x="137.36" y="208.55" width="25.75" height="9.93" rx="4.23" ry="4.23" style="fill:#e6e7e8; stroke-width:0px;"/><path d="m158.88,219.98h-17.29c-3.16,0-5.73-2.57-5.73-5.73v-1.47c0-3.16,2.57-5.73,5.73-5.73h17.29c3.16,0,5.73,2.57,5.73,5.73v1.47c0,3.16-2.57,5.73-5.73,5.73Zm-17.29-9.93c-1.51,0-2.73,1.22-2.73,2.73v1.47c0,1.5,1.22,2.73,2.73,2.73h17.29c1.51,0,2.73-1.22,2.73-2.73v-1.47c0-1.5-1.22-2.73-2.73-2.73h-17.29Z" style="fill:#231f20; stroke-width:0px;"/><rect x="137.36" y="218.48" width="25.75" height="9.93" rx="4.23" ry="4.23" style="fill:#e6e7e8; stroke-width:0px;"/><path d="m158.88,229.91h-17.29c-3.16,0-5.73-2.57-5.73-5.73v-1.47c0-3.16,2.57-5.73,5.73-5.73h17.29c3.16,0,5.73,2.57,5.73,5.73v1.47c0,3.16-2.57,5.73-5.73,5.73Zm-17.29-9.93c-1.51,0-2.73,1.22-2.73,2.73v1.47c0,1.5,1.22,2.73,2.73,2.73h17.29c1.51,0,2.73-1.22,2.73-2.73v-1.47c0-1.5-1.22-2.73-2.73-2.73h-17.29Z" style="fill:#231f20; stroke-width:0px;"/><rect x="137.36" y="228.41" width="25.75" height="9.93" rx="4.23" ry="4.23" style="fill:#e6e7e8; stroke-width:0px;"/><path d="m158.88,239.84h-17.29c-3.16,0-5.73-2.57-5.73-5.73v-1.47c0-3.16,2.57-5.73,5.73-5.73h17.29c3.16,0,5.73,2.57,5.73,5.73v1.47c0,3.16-2.57,5.73-5.73,5.73Zm-17.29-9.93c-1.51,0-2.73,1.22-2.73,2.73v1.47c0,1.5,1.22,2.73,2.73,2.73h17.29c1.51,0,2.73-1.22,2.73-2.73v-1.47c0-1.51-1.22-2.73-2.73-2.73h-17.29Z" style="fill:#231f20; stroke-width:0px;"/><rect x="137.36" y="238.35" width="25.75" height="9.93" rx="4.23" ry="4.23" style="fill:#e6e7e8; stroke-width:0px;"/><path d="m158.88,249.78h-17.29c-3.16,0-5.73-2.57-5.73-5.73v-1.47c0-3.16,2.57-5.73,5.73-5.73h17.29c3.16,0,5.73,2.57,5.73,5.73v1.47c0,3.16-2.57,5.73-5.73,5.73Zm-17.29-9.93c-1.51,0-2.73,1.22-2.73,2.73v1.47c0,1.5,1.22,2.73,2.73,2.73h17.29c1.51,0,2.73-1.22,2.73-2.73v-1.47c0-1.5-1.22-2.73-2.73-2.73h-17.29Z" style="fill:#231f20; stroke-width:0px;"/><rect x="150.3" y="209.8" width="12.23" height="38.48" style="fill:#d1d3d4; stroke-width:0px;"/><path d="m161.94,262.45h-23.42c-1.99,0-3.84-.98-4.96-2.62-1.12-1.64-1.35-3.73-.62-5.58l.17-.31,5.02-7.16h24.2l5.19,7.47c.73,1.85.5,3.93-.62,5.58-1.12,1.64-2.97,2.62-4.96,2.62Zm-26.26-6.95c-.3.9-.17,1.85.37,2.64.57.83,1.47,1.31,2.48,1.31h23.42c1.01,0,1.91-.48,2.48-1.31.54-.79.67-1.74.37-2.64l-4.01-5.73h-21.08l-4.01,5.73Z" style="fill:#231f20; stroke-width:0px;"/><path d="m158.88,219.98h-17.29c-3.16,0-5.73-2.57-5.73-5.73v-1.47c0-3.16,2.57-5.73,5.73-5.73h17.29c3.16,0,5.73,2.57,5.73,5.73v1.47c0,3.16-2.57,5.73-5.73,5.73Zm-17.29-9.93c-1.51,0-2.73,1.22-2.73,2.73v1.47c0,1.5,1.22,2.73,2.73,2.73h17.29c1.51,0,2.73-1.22,2.73-2.73v-1.47c0-1.5-1.22-2.73-2.73-2.73h-17.29Z" style="fill:#231f20; stroke-width:0px;"/><path d="m158.88,229.91h-17.29c-3.16,0-5.73-2.57-5.73-5.73v-1.47c0-3.16,2.57-5.73,5.73-5.73h17.29c3.16,0,5.73,2.57,5.73,5.73v1.47c0,3.16-2.57,5.73-5.73,5.73Zm-17.29-9.93c-1.51,0-2.73,1.22-2.73,2.73v1.47c0,1.5,1.22,2.73,2.73,2.73h17.29c1.51,0,2.73-1.22,2.73-2.73v-1.47c0-1.5-1.22-2.73-2.73-2.73h-17.29Z" style="fill:#231f20; stroke-width:0px;"/><path d="m158.88,239.84h-17.29c-3.16,0-5.73-2.57-5.73-5.73v-1.47c0-3.16,2.57-5.73,5.73-5.73h17.29c3.16,0,5.73,2.57,5.73,5.73v1.47c0,3.16-2.57,5.73-5.73,5.73Zm-17.29-9.93c-1.51,0-2.73,1.22-2.73,2.73v1.47c0,1.5,1.22,2.73,2.73,2.73h17.29c1.51,0,2.73-1.22,2.73-2.73v-1.47c0-1.51-1.22-2.73-2.73-2.73h-17.29Z" style="fill:#231f20; stroke-width:0px;"/><path d="m158.88,249.78h-17.29c-3.16,0-5.73-2.57-5.73-5.73v-1.47c0-3.16,2.57-5.73,5.73-5.73h17.29c3.16,0,5.73,2.57,5.73,5.73v1.47c0,3.16-2.57,5.73-5.73,5.73Zm-17.29-9.93c-1.51,0-2.73,1.22-2.73,2.73v1.47c0,1.5,1.22,2.73,2.73,2.73h17.29c1.51,0,2.73-1.22,2.73-2.73v-1.47c0-1.5-1.22-2.73-2.73-2.73h-17.29Z" style="fill:#231f20; stroke-width:0px;"/><rect x="177.55" y="111.71" width="29.59" height="14.12" rx="5" ry="5" style="fill:#58595b; stroke-width:0px;"/><path d="m202.14,127.33h-19.59c-3.58,0-6.5-2.92-6.5-6.5v-4.12c0-3.58,2.92-6.5,6.5-6.5h19.59c3.58,0,6.5,2.92,6.5,6.5v4.12c0,3.58-2.92,6.5-6.5,6.5Zm-19.59-14.12c-1.93,0-3.5,1.57-3.5,3.5v4.12c0,1.93,1.57,3.5,3.5,3.5h19.59c1.93,0,3.5-1.57,3.5-3.5v-4.12c0-1.93-1.57-3.5-3.5-3.5h-19.59Z" style="fill:#231f20; stroke-width:0px;"/><path d="m205.31,112.01c0,1.34-4,11.7-13.32,13.51l13.21-.45,1.95-9.18-1.84-3.87Z" style="fill:#414042; stroke-width:0px;"/><path d="m202.14,127.33h-19.59c-3.58,0-6.5-2.92-6.5-6.5v-4.12c0-3.58,2.92-6.5,6.5-6.5h19.59c3.58,0,6.5,2.92,6.5,6.5v4.12c0,3.58-2.92,6.5-6.5,6.5Zm-19.59-14.12c-1.93,0-3.5,1.57-3.5,3.5v4.12c0,1.93,1.57,3.5,3.5,3.5h19.59c1.93,0,3.5-1.57,3.5-3.5v-4.12c0-1.93-1.57-3.5-3.5-3.5h-19.59Z" style="fill:#231f20; stroke-width:0px;"/><rect x="93.33" y="111.71" width="29.59" height="14.12" rx="5" ry="5" style="fill:#58595b; stroke-width:0px;"/><path d="m117.92,127.33h-19.59c-3.58,0-6.5-2.92-6.5-6.5v-4.12c0-3.58,2.92-6.5,6.5-6.5h19.59c3.58,0,6.5,2.92,6.5,6.5v4.12c0,3.58-2.92,6.5-6.5,6.5Zm-19.59-14.12c-1.93,0-3.5,1.57-3.5,3.5v4.12c0,1.93,1.57,3.5,3.5,3.5h19.59c1.93,0,3.5-1.57,3.5-3.5v-4.12c0-1.93-1.57-3.5-3.5-3.5h-19.59Z" style="fill:#231f20; stroke-width:0px;"/></svg>