<?xml version="1.0" encoding="UTF-8"?><svg id="b" xmlns="http://www.w3.org/2000/svg" viewBox="0 0 300.48 304.92"><path d="m205.41,72.42l3.06,14.29s-21.43-15.31-38.07-12.25l.71-4.29s18.37-7.04,34.29,2.25Z" style="fill:#565c5e; stroke-width:0px;"/><path d="m210.75,90.17l-3.15-2.25c-.21-.15-21.12-14.9-36.93-11.99l-2.1.39,1.21-7.24.8-.31c.78-.3,19.23-7.19,35.59,2.35l.57.33,4.01,18.72Zm-35.68-17.62c12.21,0,25.32,7.22,31.17,10.88l-2.15-10.04c-13.13-7.3-28.06-3.23-31.63-2.09l-.23,1.39c.94-.09,1.89-.14,2.85-.14Z" style="fill:#231f20; stroke-width:0px;"/><path d="m172.34,76.91c2.96.92,17.55,16.64,20.31,26.54l5.41-11.43s-13.17-21.84-24.7-22.05-1.02,6.94-1.02,6.94Z" style="fill:#565c5e; stroke-width:0px;"/><path d="m192.29,107.73l-1.08-3.88c-2.63-9.45-16.94-24.71-19.31-25.51l-.2-.07-.2-.13c-1.77-1.21-5.8-4.31-4.91-7.12.76-2.39,4.24-2.61,6.8-2.56,12.22.22,25.4,21.85,25.96,22.77l.42.69-7.47,15.8Zm-19.23-32.15c3.54,1.56,15.26,14.07,19.76,24.02l3.54-7.48c-2.3-3.61-13.53-20.48-23.02-20.65-2.74-.05-3.63.35-3.86.5.17.71,1.82,2.38,3.58,3.61Z" style="fill:#231f20; stroke-width:0px;"/><path d="m216.11,243.89v6.1c-36.1,0-95.62,0-131.74,0v-6.1c-.61-13.7,13.41-18.54,25.73-22.44,4.5-1.42,8.31-4.54,10.46-8.74,5.92-11.56,6.86-29,6.77-40.41h44.71c-.08,11.43.83,28.28,6.5,39.86,2.15,4.39,6.12,7.62,10.8,9.04,12.53,3.79,27.29,8.81,26.77,22.69Z" style="fill:#2d383e; stroke-width:0px;"/><path d="m156.37,165.15l13.47-5.36c1.01,27.71,6.11,49.81,8.76,54,4.69,7.42,24.83,13.41,27.7,14.14-47.19-.57-44.18-25.47-49.92-62.77Z" style="fill:#1b2326; stroke-width:0px;"/><path d="m82.87,251.48v-7.6c-.68-15.18,15.19-20.2,26.77-23.87,4.16-1.32,7.65-4.23,9.58-7.99,5.62-10.97,6.7-27.65,6.61-39.72v-1.51s47.72,0,47.72,0v1.51c-.13,16.92,2.07,30.47,6.34,39.19,1.93,3.93,5.53,6.95,9.89,8.27,11.31,3.43,28.4,8.6,27.84,24.15v7.57h-1.5c-36.1,0-95.62,0-131.74,0h-1.5Zm65.26-3.01c23.95,0,48.07,0,66.47,0v-4.65c.46-12.24-11.9-17.01-25.71-21.19-5.15-1.56-9.42-5.14-11.71-9.82-4.41-9-6.65-22.12-6.66-39.02h-41.7c-.01,12.26-1.28,28.55-6.94,39.6-2.29,4.47-6.42,7.93-11.34,9.49-13.82,4.37-25.21,8.97-24.68,20.94v4.66c17.33,0,39.72,0,62.27,0Z" style="fill:#231f20; stroke-width:0px;"/><path d="m106.12,117.5l-2.02,16.16c-3.59.02-6.83.07-9.64.14-4.47-.01-8.09-.6-8.09-1.34v-13.25c0-.63,2.71-1.17,6.46-1.3,0,0,5.07-.16,13.29-.41Z" style="fill:#2d383e; stroke-width:0px;"/><path d="m94.5,135.3c-9.63-.02-9.63-2-9.63-2.84v-13.25c0-.88,0-2.52,7.9-2.8,0,0,5.08-.16,13.3-.41l1.75-.05-2.4,19.21h-1.32c-3.42.03-6.65.07-9.61.15Zm-6.63-3.61c.92.26,3.12.6,6.6.61,2.56-.06,5.36-.11,8.31-.13l1.64-13.12c-7.18.22-11.54.36-11.54.36-2.73.1-4.29.38-5,.58v11.7Z" style="fill:#231f20; stroke-width:0px;"/><path d="m194.37,117.5l2.02,16.16c3.59.02,6.83.07,9.64.14,4.47-.01,8.09-.6,8.09-1.34v-13.25c0-.63-2.71-1.17-6.46-1.3,0,0-5.07-.16-13.29-.41Z" style="fill:#2d383e; stroke-width:0px;"/><path d="m206.03,135.3c-3-.07-6.23-.12-9.65-.14h-1.32s-2.4-19.21-2.4-19.21l1.75.05c8.22.25,13.29.41,13.29.41,7.91.27,7.91,1.92,7.91,2.8v13.25c0,.84,0,2.82-9.59,2.84Zm-8.31-3.13c2.95.02,5.76.07,8.35.13,3.45,0,5.63-.35,6.56-.61v-11.7c-.72-.2-2.27-.48-5.01-.58h0s-4.35-.14-11.53-.36l1.64,13.12Z" style="fill:#231f20; stroke-width:0px;"/><path d="m167.44,107.36l-16.56,19.79-17.1-19.79h1.78c2.49,1.51,5.22,2.65,8.13,3.33,3.78,1.15,9.06,1.91,14.13-.25.04-.02.07-.03.11-.05,2.49-.69,4.83-1.72,6.98-3.03h2.53Z" style="fill:#2d383e; stroke-width:0px;"/><path d="m150.9,129.46l-20.4-23.61h5.48l.36.22c2.41,1.46,5,2.52,7.69,3.15,3.46,1.05,8.47,1.85,13.2-.17l.3-.12c2.31-.64,4.53-1.6,6.6-2.87l.36-.22h6.16l-19.75,23.61Zm-12.36-18.89l12.32,14.26,12.47-14.9c-1.57.77-3.21,1.4-4.89,1.87-5.61,2.38-11.35,1.49-15.18.32-1.59-.37-3.17-.89-4.71-1.55Z" style="fill:#231f20; stroke-width:0px;"/><path d="m143.69,110.69c-2.91-.68-5.64-1.82-8.13-3.33h29.35c-2.15,1.31-4.49,2.34-6.98,3.03-.04.02-.07.03-.11.05-5.07,2.16-10.35,1.4-14.13.25Z" style="fill:#b7bbbc; stroke-width:0px;"/><path d="m150.81,113.3c-2.83,0-5.44-.54-7.5-1.17-2.99-.7-5.85-1.88-8.52-3.5l-4.59-2.78h40.06l-4.56,2.78c-2.28,1.39-4.72,2.45-7.25,3.17-2.58,1.1-5.2,1.5-7.64,1.5Zm-8.17-4.45c.46.14.93.26,1.4.37l.1.03c3.37,1.02,8.37,1.82,13.11-.19l.3-.12c.1-.03.2-.06.3-.08h-15.2Z" style="fill:#231f20; stroke-width:0px;"/><path d="m206.68,141.7c.03.71-.54,1.28-1.16,1.16l-25.1-4.69,1.39,23.84.5,8.61.15,2.6,13.37,27.17c.35.72-.06,1.6-.78,1.68,0,0-7.68,1.84-19.17,3.28-.07.01-.13.01-.2.02-3.56.44-7.49.85-11.66,1.14-4.37.31-9.01.5-13.79.5-5.34,0-10.5-.24-15.31-.61-3.97-.31-7.69-.71-11.07-1.15-.11-.01-.22-.02-.33-.04-10.9-1.41-18.11-3.14-18.11-3.14-.71-.08-1.12-.96-.78-1.68l13.38-27.17.15-2.6.5-8.61,1.38-23.84-25.09,4.69c-.63.12-1.19-.45-1.16-1.16l.28-7.9.55-15.94.25-7.05c.02-.58.42-1.04.93-1.09l29.17-2.36h8.81l17.1,19.79,16.56-19.79h8.05l.74.06,28.44,2.3c.5.05.9.51.92,1.09l.25,7.05.56,15.94.28,7.9Z" style="fill:#b7bbbc; stroke-width:0px;"/><path d="m150.23,208.51c-4.94,0-10.13-.21-15.43-.61-3.74-.29-7.49-.68-11.15-1.16-.09,0-.25-.02-.41-.05-10.2-1.32-17.33-2.95-18.12-3.14-.75-.12-1.39-.57-1.78-1.27-.43-.78-.46-1.72-.08-2.53l13.26-26.92,1.9-32.83-23.21,4.34c-.72.14-1.46-.06-2.02-.55-.6-.52-.94-1.32-.91-2.14l1.08-30.88c.05-1.32,1.03-2.41,2.28-2.53l29.32-2.37h9.5l16.4,18.97,15.88-18.97h8.87s29.18,2.36,29.18,2.36c1.28.13,2.25,1.22,2.3,2.53l1.09,30.88c.03.82-.31,1.62-.91,2.14-.57.49-1.31.69-2.03.55l-23.21-4.34,1.91,32.83,13.24,26.9c.4.81.37,1.76-.06,2.54-.39.7-1.03,1.16-1.79,1.28-.83.19-8.41,1.93-19.26,3.29l-.17.02c-4.16.51-8,.89-11.77,1.15-4.71.33-9.38.5-13.89.5Zm-44.08-7.81c1.63.37,8.28,1.82,17.56,3.02.14.02.21.03.27.03,3.67.48,7.37.86,11.05,1.15,5.22.4,10.33.61,15.19.61,4.44,0,9.04-.17,13.68-.5,3.73-.26,7.51-.63,11.58-1.13.04,0,.1-.01.17-.02,9.85-1.23,16.95-2.78,18.64-3.16l-13.33-27.09-2.17-37.27,26.35,4.92-1.06-30.09-28.67-2.32h-7.29l-17.24,20.61-17.81-20.61h-8.06l-28.67,2.32-1.05,30.09,26.34-4.92-2.16,37.27-13.34,27.09Zm-10.86-58.95h0s0,0,0,0Zm-.62-.37s0,0,0,0h0Zm111.12,0h0s0,0,0,0Z" style="fill:#231f20; stroke-width:0px;"/><path d="m178.5,83.2c0,1.41-.1,2.8-.31,4.15-1.04,7.08-4.7,13.31-9.98,17.66h-.01c-1.03.86-2.13,1.64-3.29,2.35-2.15,1.31-4.49,2.34-6.98,3.03-2.44.7-5.02,1.07-7.69,1.07-2.25,0-4.45-.26-6.55-.77-2.91-.68-5.64-1.82-8.13-3.33-2.29-1.4-4.37-3.11-6.19-5.09l-.97-1.13c-4.01-4.87-6.43-11.13-6.43-17.94,0-1.28.09-2.54.26-3.77.83-6.3,3.75-11.94,8.02-16.21,5.12-5.12,12.19-8.28,19.99-8.28s14.87,3.16,19.98,8.28c1.75,1.74,3.27,3.72,4.5,5.87.22.37.43.74.61,1.12.66,1.25,1.22,2.56,1.68,3.92.58,1.7,1,3.47,1.23,5.3.13.9.21,1.82.23,2.75.01.01.01.02,0,.03.02.08.02.16.01.24.02.25.02.5.02.75Z" style="fill:#2d383e; stroke-width:0px;"/><path d="m178.49,82.18v.02c0,.09-.01.17-.01.25-.07,1.74-.15,3.37-.29,4.9-.49,5.61-1.71,9.96-5.46,13.91-.35.38-.72.74-1.12,1.11-.98.9-2.11,1.78-3.4,2.64h-.01c-1.16.8-2.46,1.58-3.9,2.35-1.86,1.01-3.97,2.01-6.37,3.03-.04.02-.07.03-.11.05-5.07,2.16-10.35,1.4-14.13.25-3.2-.98-5.33-2.24-5.33-2.24,4.69.11,8.8-.3,12.42-1.09,19.45-4.26,24.55-19.58,27.69-25.15t.01-.02s.01-.01.01-.01Z" style="fill:#1b2326; stroke-width:0px;"/><path d="m150.24,112.96c-2.36,0-4.69-.27-6.9-.81-2.99-.7-5.87-1.88-8.55-3.5-2.41-1.48-4.6-3.28-6.52-5.36l-1-1.17c-4.39-5.33-6.79-12.04-6.79-18.92,0-1.32.09-2.66.27-3.98.84-6.4,3.84-12.46,8.45-17.07,5.62-5.62,13.1-8.72,21.05-8.72s15.43,3.1,21.04,8.72c1.85,1.84,3.44,3.92,4.74,6.18.19.31.44.76.66,1.22.66,1.25,1.26,2.64,1.75,4.08.62,1.83,1.06,3.71,1.3,5.59.11.75.18,1.51.22,2.27l.02.02v.62c.02.1.02.2.01.3.02.25.02.5.02.75,0,1.51-.11,2.98-.33,4.38-1.07,7.26-4.78,13.84-10.45,18.54l-.07.06c-1.07.88-2.23,1.71-3.46,2.46-2.31,1.41-4.79,2.48-7.36,3.2-2.6.75-5.32,1.12-8.09,1.12Zm0-56.52c-7.15,0-13.87,2.78-18.93,7.84-4.14,4.14-6.83,9.59-7.59,15.35-.16,1.19-.25,2.39-.25,3.57,0,6.19,2.16,12.22,6.09,16.99l.95,1.11c1.69,1.84,3.66,3.46,5.83,4.79,2.4,1.46,4.99,2.52,7.69,3.15,4.34,1.05,9.14.96,13.49-.28,2.32-.64,4.54-1.61,6.61-2.87,1.09-.66,2.12-1.4,3.06-2.17l.07-.06c5.13-4.23,8.49-10.17,9.45-16.72.2-1.26.29-2.58.29-3.93,0-.12,0-.23,0-.35h-.01s-.01-.43-.01-.43h0s-.17-.69-.17-.69l.14-.14c-.03-.64-.1-1.29-.19-1.94-.21-1.71-.61-3.39-1.17-5.03-.44-1.29-.97-2.54-1.59-3.7-.19-.4-.38-.73-.57-1.05-1.17-2.05-2.61-3.92-4.27-5.57-5.05-5.06-11.77-7.84-18.92-7.84Z" style="fill:#231f20; stroke-width:0px;"/><polygon points="150.9 127.17 146.06 134.8 145.3 133.81 124.97 107.36 128.4 101.14 129.37 102.27 133.78 107.36 150.88 127.15 150.9 127.17" style="fill:#fff; stroke-width:0px;"/><path d="m146.18,137.41l-23-29.92,4.95-8.97,6.78,7.85,17.07,19.75.81.81-.62,1.03-5.99,9.44Zm-19.42-30.19l19.19,24.96,3.09-4.88-20.36-23.55-1.91,3.47Z" style="fill:#231f20; stroke-width:0px;"/><polygon points="176.78 106.71 176.23 107.42 151.21 139.67 143.4 162.01 141.05 168.74 140.45 170.45 140.42 170.62 140.17 172.3 139.06 179.51 134.92 206.4 134.66 208.08 123.44 207.42 123.85 205.25 124.59 201.27 126.03 193.63 128.98 177.87 130.03 172.3 130.04 172.25 130.34 170.62 130.9 167.64 133.27 162.01 145 134.17 145.3 133.81 150.88 127.15 167.44 107.36 171.61 102.37 172.64 101.14 172.73 101.26 176.78 106.71" style="fill:#fff; stroke-width:0px;"/><path d="m135.94,209.66l-14.28-.84,7.87-41.76,14.19-33.68,29-34.65,5.96,8-26.12,33.67-10.65,30.48-1.35,8.86-4.61,29.92Zm-10.7-3.64l8.16.48,5.65-36.55,10.84-31.01,25.02-32.25-2.33-3.13-26.27,31.4-13.95,33.12-7.11,37.95Z" style="fill:#231f20; stroke-width:0px;"/><rect x="114.76" y="162.01" width="70.96" height="8.61" rx=".5" ry=".5" style="fill:#f1f2f2; stroke-width:0px;"/><path d="m185.23,172.12h-69.96c-1.1,0-2-.9-2-2v-7.61c0-1.1.9-2,2-2h69.96c1.1,0,2,.9,2,2v7.61c0,1.1-.9,2-2,2Zm-68.96-3h67.96v-5.61h-67.96v5.61Z" style="fill:#231f20; stroke-width:0px;"/><path d="m148.8,172s-13.55,10.17-14.74,11.83c0,0-6.67-6.88-7.32-10.11,0,0,7.12-3.77,19.32-6.08s0,0,0,0l2.74,4.36" style="fill:#f1f2f2; stroke-width:0px;"/><path d="m134.23,186.12l-1.25-1.24c-1.16-1.2-7.01-7.38-7.71-10.86l-.22-1.1.99-.52c.28-.15,6.63-3.46,17.59-5.79v-.02s7.57-1.44,7.57-1.44l.56,2.95-3.26.62,2.3,3.66-1.1.83c-6.51,4.88-13.68,10.52-14.42,11.5l-1.05,1.41Zm-5.61-11.63c.99,1.97,3.47,5,5.48,7.2,2.84-2.56,9.37-7.55,12.7-10.05l-1.46-2.32c-8.49,1.7-14.35,4.1-16.72,5.18Z" style="fill:#231f20; stroke-width:0px;"/><path d="m165.52,183.84s5.59-4.89,7.26-9.9c0,0-11.62-5.49-16.84-5.65l-3.93,4.3s12.43,9.63,13.5,11.24Z" style="fill:#f1f2f2; stroke-width:0px;"/><path d="m165.23,186.09l-.95-1.42c-.69-.97-7.24-6.29-13.17-10.89l-1.29-1,5.49-6.01.69.02c5.47.17,16.94,5.56,17.43,5.79l1.2.57-.42,1.26c-1.78,5.33-7.46,10.34-7.7,10.55l-1.29,1.13Zm-11-13.68c3.11,2.43,8.79,6.92,11.35,9.32,1.42-1.41,3.94-4.15,5.29-7.02-3.63-1.63-10.52-4.45-14.29-4.87l-2.34,2.57Z" style="fill:#231f20; stroke-width:0px;"/><path d="m151.43,160.76c-6.13,0-8.12,11.83,0,11.83,8.61,0,4.2-11.83,0-11.83Z" style="fill:#f1f2f2; stroke-width:0px;"/><path d="m151.43,174.09c-4.75,0-6.87-3.42-6.87-6.81,0-1.91.64-3.86,1.76-5.35,1.3-1.73,3.12-2.68,5.11-2.68,3.47,0,6.44,4.85,6.44,8.82,0,1.69-.53,3.15-1.52,4.2-1.14,1.21-2.79,1.82-4.91,1.82Zm0-11.83c-1.32,0-2.21.81-2.72,1.49-.72.96-1.15,2.28-1.15,3.54,0,1.14.38,3.81,3.87,3.81,1.26,0,2.18-.3,2.74-.88.58-.61.7-1.5.7-2.14,0-2.89-2.2-5.82-3.44-5.82Z" style="fill:#231f20; stroke-width:0px;"/><path d="m179.75,64.16l1,14.32c0,.52-.19.94-.43.94h-60.4c-.24,0-.43-.42-.43-.94l1-14.32c0-.52.19-.94.43-.94h58.4c.24,0,.43.42.43.94Z" style="fill:#565c5e; stroke-width:0px;"/><path d="m180.32,80.93h-60.4c-1.12,0-1.93-1.03-1.93-2.44v-.1s1-14.28,1-14.28c.02-1.38.83-2.38,1.93-2.38h58.4c1.1,0,1.91,1,1.93,2.38l1,14.38c0,1.41-.81,2.44-1.93,2.44Zm-59.29-3h58.17l-.91-13.21h-56.33l-.92,13.21Z" style="fill:#231f20; stroke-width:0px;"/><circle cx="150.12" cy="71.32" r="4.93" style="fill:#fff; stroke-width:0px;"/><path d="m150.12,77.75c-3.54,0-6.43-2.88-6.43-6.43s2.88-6.43,6.43-6.43,6.43,2.88,6.43,6.43-2.88,6.43-6.43,6.43Zm0-9.85c-1.89,0-3.43,1.54-3.43,3.43s1.54,3.43,3.43,3.43,3.43-1.54,3.43-3.43-1.54-3.43-3.43-3.43Z" style="fill:#231f20; stroke-width:0px;"/></svg>