<?xml version="1.0" encoding="UTF-8"?><svg id="b" xmlns="http://www.w3.org/2000/svg" viewBox="0 0 300.48 304.92"><path d="m205.41,71.42l3.06,14.29s-21.43-15.31-38.07-12.25l.71-4.29s18.37-7.04,34.29,2.25Z" style="fill:#e3e4e7; stroke-width:0px;"/><path d="m209.99,88.02l-2.1-1.5c-.21-.15-21.28-15.02-37.31-12.08l-1.4.26,1.04-6.26.53-.21c.77-.3,19.01-7.11,35.16,2.32l.38.22,3.69,17.24Zm-34.9-15.97c6.09,0,13.13,1.83,21,5.48,4.76,2.2,8.64,4.54,10.88,5.97l-2.45-11.44c-13.74-7.76-29.46-3.16-32.52-2.14l-.39,2.34c1.12-.14,2.28-.21,3.48-.21Z" style="fill:#231f20; stroke-width:0px;"/><path d="m172.34,75.91c2.96.92,17.55,16.64,20.31,26.54l5.41-11.43s-13.17-21.84-24.7-22.05-1.02,6.94-1.02,6.94Z" style="fill:#e3e4e7; stroke-width:0px;"/><path d="m192.41,105.3l-.72-2.58c-2.71-9.74-17.24-25.1-19.64-25.85l-.27-.13c-1.31-.89-5.53-4-4.72-6.55.66-2.07,3.93-2.25,6.32-2.21,11.95.21,24.99,21.62,25.54,22.53l.28.46-6.79,14.34Zm-19.6-30.29c3.4,1.38,15.92,14.92,19.99,24.8l4.13-8.74c-1.95-3.09-13.62-20.93-23.58-21.11-4.04-.07-4.37.81-4.38.82-.21.67,1.64,2.71,3.84,4.23Z" style="fill:#231f20; stroke-width:0px;"/><path d="m216.11,242.89v6.1c-36.1,0-95.62,0-131.74,0v-6.1c-.61-13.7,13.41-18.54,25.73-22.44,4.5-1.42,8.31-4.54,10.46-8.74,5.92-11.56,6.86-29,6.77-40.41h44.71c-.08,11.43.83,28.28,6.5,39.86,2.15,4.39,6.12,7.62,10.8,9.04,12.53,3.79,27.29,8.81,26.77,22.69Z" style="fill:#fff; stroke-width:0px;"/><path d="m156.37,164.15l13.47-5.36c1.01,27.71,6.11,49.81,8.76,54,4.69,7.42,24.83,13.41,27.7,14.14-47.19-.57-44.18-25.47-49.92-62.77Z" style="fill:#e6e7e8; stroke-width:0px;"/><path d="m82.87,250.49v-7.6c-.68-15.18,15.19-20.2,26.77-23.87,4.16-1.32,7.65-4.23,9.58-7.99,5.62-10.97,6.7-27.66,6.61-39.72v-1.51s47.72,0,47.72,0v1.51c-.13,16.92,2.07,30.47,6.34,39.19,1.93,3.93,5.53,6.95,9.89,8.27,11.31,3.43,28.4,8.6,27.84,24.15v7.57h-1.5c-36.1,0-95.62,0-131.74,0h-1.5Zm65.26-3.01c23.95,0,48.07,0,66.47,0v-4.65c.46-12.24-11.9-17.01-25.71-21.19-5.15-1.56-9.42-5.14-11.71-9.82-4.41-9-6.65-22.12-6.66-39.02h-41.7c-.01,12.26-1.28,28.55-6.94,39.6-2.29,4.47-6.42,7.93-11.34,9.49-13.82,4.37-25.21,8.97-24.68,20.94v4.66c17.33,0,39.72,0,62.27,0Z" style="fill:#231f20; stroke-width:0px;"/><path d="m106.12,116.5l-2.02,16.16c-3.59.02-6.83.07-9.64.14-4.47-.01-8.09-.6-8.09-1.34v-13.25c0-.63,2.71-1.17,6.46-1.3,0,0,5.07-.16,13.29-.41Z" style="fill:#fff; stroke-width:0px;"/><path d="m94.5,134.3c-9.63-.02-9.63-2-9.63-2.84v-13.25c0-.88,0-2.53,7.9-2.8,0,0,5.08-.16,13.3-.41l1.75-.05-2.4,19.21h-1.32c-3.39.03-6.62.07-9.61.15Zm-6.63-3.61c.92.26,3.12.6,6.6.61,2.58-.06,5.38-.11,8.31-.13l1.64-13.12c-7.18.22-11.54.36-11.54.36-2.73.09-4.29.38-5,.58v11.7Z" style="fill:#231f20; stroke-width:0px;"/><path d="m194.37,116.5l2.02,16.16c3.59.02,6.83.07,9.64.14,4.47-.01,8.09-.6,8.09-1.34v-13.25c0-.63-2.71-1.17-6.46-1.3,0,0-5.07-.16-13.29-.41Z" style="fill:#fff; stroke-width:0px;"/><path d="m206.03,134.3c-3.03-.07-6.26-.12-9.65-.14h-1.32s-2.4-19.21-2.4-19.21l1.75.05c8.22.25,13.29.41,13.29.41,7.91.27,7.91,1.92,7.91,2.8v13.25c0,.84,0,2.82-9.59,2.84Zm-8.32-3.13c2.93.02,5.73.07,8.35.13,3.45,0,5.64-.35,6.56-.61v-11.7c-.72-.2-2.27-.48-5.01-.58h0s-4.35-.14-11.53-.36l1.64,13.12Z" style="fill:#231f20; stroke-width:0px;"/><path d="m206.69,140.7c.03.71-.54,1.28-1.16,1.16l-25.1-4.7,2.04,35.05,13.37,27.18c.35.71-.06,1.59-.78,1.67,0,0-20.61,4.95-44.82,4.95s-44.82-4.95-44.82-4.95c-.71-.08-1.12-.96-.78-1.67l13.38-27.18,2.03-35.05-25.09,4.7c-.63.11-1.19-.45-1.16-1.16l1.08-30.89c.02-.58.42-1.04.93-1.08l29.17-2.36h50.52l29.18,2.36c.5.05.9.51.92,1.08l1.09,30.89Z" style="fill:#fff; stroke-width:0px;"/><path d="m150.24,207.51c-23.39,0-43.71-4.65-45.1-4.97-.75-.12-1.4-.58-1.78-1.27-.43-.78-.46-1.72-.08-2.52l13.25-26.92,1.9-32.83-23.21,4.34c-.74.13-1.48-.08-2.04-.57-.6-.53-.93-1.31-.9-2.13l1.08-30.88c.05-1.33,1.03-2.41,2.3-2.53l29.3-2.37h50.64s29.18,2.37,29.18,2.37c1.27.11,2.25,1.2,2.3,2.53l1.09,30.89c.03.82-.3,1.6-.9,2.13-.56.49-1.3.7-2.02.57l-23.22-4.35,1.91,32.83,13.24,26.91c.39.8.37,1.74-.06,2.53-.38.69-1.04,1.17-1.79,1.28-1.39.32-21.71,4.97-45.1,4.97Zm-44.08-7.81c2.96.67,22.15,4.81,44.08,4.81s41.12-4.14,44.08-4.81l-13.33-27.09-2.17-37.27,26.35,4.93-1.06-30.09-28.67-2.32h-50.4l-28.67,2.32-1.05,30.09,26.34-4.93-2.16,37.27-13.34,27.09Zm99.03-58.93h0Zm-109.89-.01h0s0,0,0,0Z" style="fill:#231f20; stroke-width:0px;"/><circle cx="150.24" cy="82.2" r="28.26" style="fill:#fff; stroke-width:0px;"/><path d="m178.49,81.19c-.48,13.36-1.83,20.23-20.66,28.25-9.38,3.99-19.46-1.98-19.46-1.98,29.95.68,36.41-19.69,40.12-26.27" style="fill:#d1d3d4; stroke-width:0px;"/><path d="m150.24,111.97c-16.41,0-29.76-13.35-29.76-29.76s13.35-29.76,29.76-29.76,29.76,13.35,29.76,29.76-13.35,29.76-29.76,29.76Zm0-56.53c-14.76,0-26.76,12.01-26.76,26.76s12.01,26.76,26.76,26.76,26.76-12.01,26.76-26.76-12.01-26.76-26.76-26.76Z" style="fill:#231f20; stroke-width:0px;"/><polygon points="128.4 100.14 124.98 106.37 146.07 133.8 150.9 126.17 128.4 100.14" style="fill:#fff; stroke-width:0px;"/><path d="m146.19,136.42l-22.99-29.92,4.94-8.97,24.63,28.5-6.58,10.39Zm-19.42-30.19l19.18,24.96,3.09-4.88-20.36-23.55-1.91,3.47Z" style="fill:#231f20; stroke-width:0px;"/><polygon points="172.64 100.14 176.79 105.71 151.22 138.67 140.46 169.45 134.67 207.09 123.45 206.42 130.9 166.64 145 133.17 172.64 100.14" style="fill:#fff; stroke-width:0px;"/><path d="m135.94,208.66l-14.28-.84,7.86-41.76,14.19-33.67,29-34.66,5.96,8-26.12,33.66-10.64,30.42-5.98,38.85Zm-10.71-3.64l8.16.48,5.65-36.55,10.84-31.01,25.02-32.25-2.33-3.13-26.27,31.4-13.95,33.11-7.11,37.95Z" style="fill:#231f20; stroke-width:0px;"/><rect x="114.76" y="161.01" width="70.96" height="8.61" rx=".5" ry=".5" style="fill:#2d383e; stroke-width:0px;"/><path d="m185.23,171.12h-69.96c-1.1,0-2-.9-2-2v-7.61c0-1.1.9-2,2-2h69.96c1.1,0,2,.9,2,2v7.61c0,1.1-.9,2-2,2Zm-68.96-3h67.96v-5.61h-67.96v5.61Z" style="fill:#231f20; stroke-width:0px;"/><path d="m148.8,171s-13.55,10.17-14.74,11.83c0,0-6.67-6.88-7.32-10.11,0,0,7.12-3.77,19.32-6.08s0,0,0,0l2.74,4.36" style="fill:#2d383e; stroke-width:0px;"/><path d="m134.23,185.12l-1.24-1.24c-1.17-1.2-7.01-7.38-7.71-10.86l-.22-1.1.99-.52c.28-.15,6.63-3.46,17.59-5.79v-.02s2.13-.41,2.13-.41c0,0,0,0,.02,0l5.42-1.03.56,2.95-3.26.62,2.3,3.67-1.1.83c-6.51,4.88-13.68,10.52-14.42,11.5l-1.05,1.41Zm-5.61-11.63c.99,1.97,3.47,5,5.48,7.2,2.84-2.56,9.37-7.55,12.7-10.05l-1.46-2.32c-8.49,1.71-14.35,4.1-16.72,5.18Z" style="fill:#231f20; stroke-width:0px;"/><path d="m165.52,182.84s5.59-4.89,7.26-9.9c0,0-11.62-5.49-16.84-5.65l-3.93,4.3s12.43,9.63,13.5,11.24Z" style="fill:#2d383e; stroke-width:0px;"/><path d="m165.23,185.09l-.95-1.42c-.69-.97-7.24-6.29-13.17-10.89l-1.28-1,5.49-6.01.69.02c5.47.17,16.94,5.56,17.43,5.79l1.2.57-.42,1.26c-1.78,5.33-7.46,10.34-7.7,10.55l-1.29,1.13Zm-11-13.68c3.11,2.42,8.79,6.92,11.35,9.32,1.42-1.41,3.94-4.15,5.29-7.02-3.63-1.63-10.52-4.45-14.29-4.87l-2.34,2.57Z" style="fill:#231f20; stroke-width:0px;"/><path d="m151.43,159.76c-6.13,0-8.12,11.83,0,11.83,8.61,0,4.2-11.83,0-11.83Z" style="fill:#2d383e; stroke-width:0px;"/><path d="m151.43,173.1c-4.75,0-6.87-3.42-6.87-6.81,0-1.91.64-3.86,1.76-5.35,1.3-1.73,3.12-2.68,5.11-2.68,3.47,0,6.44,4.85,6.44,8.82,0,1.7-.53,3.15-1.52,4.2-1.14,1.21-2.79,1.82-4.91,1.82Zm0-11.83c-2.32,0-3.87,2.6-3.87,5.03,0,1.08.32,2.04.89,2.69.66.74,1.66,1.12,2.98,1.12s2.18-.3,2.73-.88c.58-.61.7-1.5.7-2.14,0-2.88-2.2-5.82-3.44-5.82Z" style="fill:#231f20; stroke-width:0px;"/><path d="m179.75,63.16l1,14.32c0,.52-.19.94-.43.94h-60.4c-.24,0-.43-.42-.43-.94l1-14.32c0-.52.19-.94.43-.94h58.4c.24,0,.43.42.43.94Z" style="fill:#e3e4e7; stroke-width:0px;"/><path d="m180.32,79.43h-60.4c-.84,0-1.43-.8-1.43-1.94l1-14.39c0-1.07.59-1.87,1.43-1.87h58.4c.83,0,1.42.78,1.43,1.9l1,14.29c0,1.21-.59,2.01-1.43,2.01Zm-59.83-2h59.25l-.99-14.21h-57.27l-.99,14.21Z" style="fill:#231f20; stroke-width:0px;"/><circle cx="150.12" cy="70.33" r="4.93" style="fill:#2d383e; stroke-width:0px;"/><path d="m150.12,76.25c-3.27,0-5.93-2.66-5.93-5.92s2.66-5.93,5.93-5.93,5.93,2.66,5.93,5.93-2.66,5.92-5.93,5.92Zm0-9.85c-2.16,0-3.93,1.76-3.93,3.93s1.76,3.92,3.93,3.92,3.93-1.76,3.93-3.92-1.76-3.93-3.93-3.93Z" style="fill:#231f20; stroke-width:0px;"/></svg>