<?xml version="1.0" encoding="UTF-8"?><svg id="b" xmlns="http://www.w3.org/2000/svg" viewBox="0 0 300.48 304.92"><path d="m215.35,260.84c-32.99,0-99.38,0-132.36,0,1.13-38.75,26.42-25.14,34.46-46.48,2.86-9.9,6.66-21.76,6.34-32.11,0,0,0-15.42,0-15.42.31-6.09-25.01-7.8-34.41-7.06-1.42,0-2.57-.59-2.57-1.33v-13.25c0-.63.86-1.17,2.05-1.3,0-.02,45.67-4.45,45.62-4.51-29.01-13.59-20.78-59.72,11.5-62.09,35.64-3.72,49.91,46.7,17.88,62.09-.04.04,45.6,4.5,45.61,4.51,1.2.13,2.05.67,2.05,1.3v13.25c0,.74-1.15,1.33-2.56,1.33-9.43-.73-34.7.96-34.41,7.06,0,0,0,15.45,0,15.45-.33,10.31,3.5,22.23,6.33,32.08,7.96,21.25,33.42,7.83,34.46,46.48Z" style="fill:#fff; stroke-width:0px;"/><path d="m160.94,170.85l13.47-5.36c1.01,27.71,6.11,49.81,8.76,54,4.69,7.42,21.26,15.65,24.13,16.38-44.31-6.88-40.62-27.71-46.35-65.02Z" style="fill:#e6e7e8; stroke-width:0px;"/><path d="m129.48,81.73l7.62,14.01c-14.69-2.96-17.88,12.88-14.63,22.44-12.68-20.76-5.25-27.27,7.01-36.45Z" style="fill:#d1d3d4; stroke-width:0px;"/><path d="m199.95,149.69c0,1.2-.48,6.22-.48,10.07-17.97,1.13-24.81,2.48-25.57,7.22-4.58-8.75,20.55-9.22,26.05-17.29Z" style="fill:#d1d3d4; stroke-width:0px;"/><path d="m181.74,109.32c0,11.13-3.8,22.77-12.55,29.37l-25.09.46c20.41-3.53,35.86-11.72,36.58-30.38,1.18,3.41,1.06-3.22,1.06.56Z" style="fill:#d1d3d4; stroke-width:0px;"/><path d="m216.89,262.34h-1.54c-32.99,0-99.38,0-132.36,0h-1.54l.04-1.54c.7-24.03,10.45-28.74,19.88-33.29,5.98-2.89,11.62-5.61,14.66-13.62l.79-2.7c2.7-9.25,5.76-19.72,5.48-28.89,0-.25,0-15.47,0-15.47,0-.17.02-.45-.46-.92-3.96-3.85-23.61-5.33-32.33-4.64h-.12c-2.36,0-4.07-1.19-4.07-2.83v-13.25c0-1.45,1.36-2.57,3.39-2.79v.06c.74-.14,1.94-.26,4-.46l9.76-.96c8.75-.85,20.68-2.02,27.16-2.67-11.08-7.28-16.45-20.36-13.83-34.59,2.93-15.88,14.74-26.86,30.09-27.99,19.31-2.02,31.95,11.13,35.89,25.05,3.58,12.65.71,28.52-13.05,37.52,7.59.76,22.72,2.24,31.97,3.15,5.85.57,8.05.79,8.95.93v-.05c2.03.22,3.39,1.34,3.39,2.79v13.25c0,1.64-1.71,2.83-4.06,2.83h-.12c-8.73-.68-28.39.81-32.33,4.63-.49.47-.47.76-.47.86v15.52c-.29,9.13,2.75,19.58,5.44,28.79.28.96.55,1.9.82,2.82,3.01,7.96,8.66,10.7,14.64,13.6,9.02,4.37,19.25,9.33,19.89,33.31l.04,1.54Zm-67.72-3.01c24.07,0,48.15,0,64.63,0-.95-20.82-9.31-24.87-18.15-29.15-6.26-3.04-12.74-6.17-16.16-15.3l-.04-.11c-.27-.94-.55-1.9-.83-2.87-2.75-9.43-5.86-20.12-5.56-29.68v-15.4c-.04-.72.17-1.91,1.38-3.08,5.38-5.22,27.13-6.05,34.58-5.48.46,0,.81-.1,1.01-.19v-12.52c-.14-.06-.38-.14-.71-.17h-.02c-.33-.04-3.9-.39-8.9-.88-6.64-.65-15.8-1.55-23.31-2.29-3.75-.37-7.09-.7-9.49-.94q-4.84-.48-5.14-1.43l-.41-1.25,1.18-.57c15.79-7.59,19.24-23.73,15.66-36.37-3.6-12.71-15.12-24.72-32.74-22.88-16.99,1.25-25.37,14.54-27.4,25.55-2.04,11.05,1.03,26.5,16.38,33.69l1.29.6-.54,1.32q-.35.85-4.34,1.25c-1.94.2-4.67.47-7.81.78-6.29.62-14.25,1.4-20.97,2.05-6.62.65-12.4,1.21-13.52,1.33l-.21.02c-.33.04-.57.11-.71.18v12.52c.2.09.55.18,1.02.19,8.07-.63,29.44.48,34.59,5.49,1.2,1.17,1.41,2.36,1.37,3.15v12.94s0,1.75,0,1.75c0,.17,0,.39-.02.62h.02c.3,9.64-2.83,20.36-5.6,29.82l-.84,2.86c-3.46,9.17-9.93,12.29-16.19,15.32-8.81,4.25-17.13,8.27-18.12,29.13,16.47,0,40.55,0,64.62,0Z" style="fill:#231f20; stroke-width:0px;"/><g id="c"><path d="m107.77,143.54l-.03-1.5c-.01-.52-.02-1.03-.04-1.5-.04-1.47-.1-2.61-.16-2.78-.15-.43-.96-.98-1.4-1.1-1.2-.33-13-1.24-15.88-1.8-3.18-4.95-8.74-9.22-14.18-11.39-5.34-2.13-14.56-3.88-15.49,4.1-10.58.32-12.36,19.51-11.2,26.9.43,2.77,1.65,5.78,3.6,7.83,5.52,5.78,25.5,6.58,32.97,4.07.16.15.63.32.81.34,3.68.29,16.09,2.27,16.9,2.01.81-.25,1.96-5,2.4-6.98.06-.28.11-.51.14-.66.06-.27.11-.55.17-.82.09-.49.19-.98.27-1.48.64-3.52,1.06-7.16,1.17-10.69.01-.54,0-2.49-.05-4.55Zm-54.95,13.76c-2.36-5.81-1.12-21.07,3.95-25.4,1.44-1.24,2.44-1.6,4.35-1.86.4.22.31.49.34.51.52.57.79,1.31,1.38,1.82,2.53.75,5.13,1.31,7.6,2.27.98.37,1.96.61,2.87,1.3,5.42,4.1,3.81,16.61-.81,21.38-.6.62-2.17,1.91-2.99,2.13-.57.15-.95.18-.73-.57-1.64.78-4.6,1.31-4.05,2.04-2.26.35-4.55.41-6.83.5.86.69,1.91,1.05,2.89,1.52.42.21.88.5,1.3.72-4.53-1.09-7.36-1.64-9.27-6.36Z" style="fill:#0b0c0d; stroke-width:0px;"/><path d="m88.7,136.98c-.17,1.83-.35,3.67-.54,5.5-.05.53-.1,1.06-.16,1.59-.35,3.45-.74,6.89-1.19,10.32-.24,1.91-.51,3.81-.8,5.7-.19,1.29-.4,2.58-.62,3.87-7.64,1.86-15.68,1.54-23.3-.3-.42-.22-.88-.51-1.3-.72,6.93-.03,14.75-2.02,17.76-8.95,2.02-4.67,2.31-13.02-.79-17.22-3.16-4.29-9.62-3.79-12.18-5.4-3.44-2.16-3.94-8.05,4.32-7.03,6.81.83,15.23,6.74,18.8,12.64Z" style="fill:#2d383e; stroke-width:0px;"/><path d="m72.85,155.24c-1.03,1.74-2.25,2.76-4.07,3.64-1.64.78-4.6,1.31-4.05,2.04-2.26.35-4.55.41-6.83.5.86.69,1.91,1.05,2.89,1.52.42.21.88.5,1.3.72-4.53-1.09-7.36-1.64-9.27-6.36-2.36-5.81-1.12-21.07,3.95-25.4,1.44-1.24,2.44-1.6,4.35-1.86.4.22.31.49.34.51-1.35.57-2.56.97-2.16,2.69,2.36.52,9.1,1.73,10.69,2.22,1.77.55,2.93,1.22,3.78,2.9,2.32,4.62,1.71,12.44-.92,16.88Z" style="fill:#e3e4e7; stroke-width:0px;"/><path d="m72.5,157.32c-.6.62-2.17,1.91-2.99,2.13-.57.15-.95.18-.73-.57,1.82-.88,3.04-1.9,4.07-3.64,2.63-4.44,3.24-12.26.92-16.88-.85-1.68-2.01-2.35-3.78-2.9-1.59-.49-8.33-1.7-10.69-2.22-.4-1.72.81-2.12,2.16-2.69.52.57.79,1.31,1.38,1.82,2.53.75,5.13,1.31,7.6,2.27.98.37,1.96.61,2.87,1.3,5.42,4.1,3.81,16.61-.81,21.38Z" style="fill:#b1b5b9; stroke-width:0px;"/><path d="m69.51,159.45c-1.36.91-3.19,1.21-4.78,1.47-.55-.73,2.41-1.26,4.05-2.04-.22.75.16.72.73.57Z" style="fill:#c6cbce; stroke-width:0px;"/><path d="m88.08,163.46c.58-.25,1.18-.19,1.79-.22.09,0,.02-.22.03-.22,1.45-.03,8.81,1.22,11.25,1.38,2.15-7.75,2.67-15.75,2.66-23.76-.23-.5-8.14-.86-10.82-1.49-.21-.05-.31.17-.37.16.09-.4-.67-.22-1.46-1.14.02-.09-.07-.42.19-.69q6.92.89,13.84,1.78c.41,9.05-.37,18.17-2.94,26.88l-14.11-1.8-.18-.14c.15-.22.11-.49.13-.73Z" style="fill:#b1b5b9; stroke-width:0px;"/><path d="m91.16,138.17c.79.92,1.56.75,1.46,1.14-.59,6.5-1.19,13.04-2.13,19.5-.2,1.37-.68,2.9-.59,4.21-.01,0,.06.22-.03.22-.61.03-1.21-.03-1.79.22.12-1.69,1.45-9.59,1.85-12.85.34-2.79,1.01-11.41,1.23-12.45Z" style="fill:#e3e4e7; stroke-width:0px;"/><path d="m92.62,139.31c.06.02.16-.2.37-.16,2.68.62,10.59.99,10.82,1.49.01,8.01-.51,16.01-2.66,23.76-2.44-.16-9.8-1.41-11.25-1.38-.1-1.31.39-2.84.59-4.21.94-6.46,1.55-13,2.13-19.5Z" style="fill:#2d383e; stroke-width:0px;"/></g><path d="m239.89,127.57c-.93-7.98-10.14-6.23-15.48-4.1-5.44,2.17-11,6.44-14.19,11.39-2.88.56-14.67,1.47-15.88,1.8-.43.12-1.25.67-1.4,1.1-.06.18-.12,1.41-.17,2.98-.01.47-.02.98-.04,1.5,0,.5-.02,1.01-.03,1.51-.03,1.99-.05,3.82-.03,4.34.06,2.1.24,4.23.5,6.36.17,1.38.38,2.75.62,4.11.09.5.18,1,.28,1.5.01.02.01.05.02.07.06.32.12.63.19.95.02.11.06.27.1.46.4,1.83,1.59,6.92,2.44,7.18.81.26,13.22-1.72,16.89-2.01.19-.02.66-.19.82-.34,7.46,2.51,27.44,1.71,32.97-4.07,1.95-2.05,3.17-5.06,3.6-7.83,1.16-7.39-.62-26.58-11.21-26.9Zm-.86,2.98c1.35.57,2.55.97,2.15,2.69-2.35.52-9.09,1.73-10.69,2.22-1.77.55-2.92,1.22-3.77,2.9-2.32,4.62-1.71,12.44.91,16.88,1.04,1.74,2.26,2.76,4.08,3.64.21.75-.16.72-.73.57-.83-.22-2.39-1.51-3-2.13-4.61-4.77-6.22-17.28-.8-21.38.91-.69,1.89-.93,2.86-1.3,2.48-.96,5.08-1.52,7.61-2.27.59-.51.86-1.25,1.38-1.82Z" style="fill:#0b0c0d; stroke-width:0px;"/><path d="m239.7,162.94c-.43.21-.88.5-1.3.72-7.62,1.84-15.66,2.16-23.3.3-1.53-8.94-2.45-17.96-3.32-26.98,3.58-5.9,12-11.81,18.81-12.64,8.25-1.02,7.75,4.87,4.32,7.03-2.57,1.61-9.03,1.11-12.19,5.4-3.09,4.2-2.8,12.55-.78,17.22,3.01,6.93,10.82,8.92,17.76,8.95Z" style="fill:#2d383e; stroke-width:0px;"/><path d="m247.67,157.3c-1.92,4.72-4.75,5.27-9.27,6.36.42-.22.87-.51,1.3-.72.98-.47,2.03-.83,2.89-1.52-2.28-.09-4.57-.15-6.83-.5.55-.73-2.41-1.26-4.05-2.04-1.82-.88-3.04-1.9-4.08-3.64-2.62-4.44-3.23-12.26-.91-16.88.85-1.68,2-2.35,3.77-2.9,1.6-.49,8.34-1.7,10.69-2.22.4-1.72-.8-2.12-2.15-2.69.02-.02-.06-.29.34-.51,1.9.26,2.91.62,4.35,1.86,5.06,4.33,6.31,19.59,3.95,25.4Z" style="fill:#e3e4e7; stroke-width:0px;"/><path d="m226.72,138.36c-2.32,4.62-1.71,12.44.91,16.88,1.04,1.74,2.26,2.76,4.08,3.64.21.75-.16.72-.73.57-.83-.22-2.39-1.51-3-2.13-4.61-4.77-6.22-17.28-.8-21.38.91-.69,1.89-.93,2.86-1.3,2.48-.96,5.08-1.52,7.61-2.27.59-.51.86-1.25,1.38-1.82,1.35.57,2.55.97,2.15,2.69-2.35.52-9.09,1.73-10.69,2.22-1.77.55-2.92,1.22-3.77,2.9Z" style="fill:#b1b5b9; stroke-width:0px;"/><path d="m235.76,160.92c-1.6-.26-3.42-.56-4.78-1.47.57.15.94.18.73-.57,1.64.78,4.6,1.31,4.05,2.04Z" style="fill:#c6cbce; stroke-width:0px;"/><path d="m212.4,163.46c-.58-.25-1.18-.19-1.79-.22-.09,0-.02-.22-.03-.22-1.45-.03-8.81,1.22-11.25,1.38-2.15-7.75-2.67-15.75-2.66-23.76.23-.5,8.14-.86,10.82-1.49.21-.05.31.17.37.16-.09-.4.67-.22,1.46-1.14-.02-.09.07-.42-.19-.69q-6.92.89-13.84,1.78c-.41,9.05.37,18.17,2.94,26.88l14.11-1.8.18-.14c-.15-.22-.11-.49-.13-.73Z" style="fill:#b1b5b9; stroke-width:0px;"/><path d="m209.32,138.17c-.79.92-1.56.75-1.46,1.14.59,6.5,1.19,13.04,2.13,19.5.2,1.37.68,2.9.59,4.21.01,0-.06.22.03.22.61.03,1.21-.03,1.79.22-.12-1.69-1.45-9.59-1.85-12.85-.34-2.79-1.01-11.41-1.23-12.45Z" style="fill:#e3e4e7; stroke-width:0px;"/><path d="m207.85,139.31c-.06.02-.16-.2-.37-.16-2.68.62-10.59.99-10.82,1.49-.01,8.01.51,16.01,2.66,23.76,2.44-.16,9.8-1.41,11.25-1.38.1-1.31-.39-2.84-.59-4.21-.94-6.46-1.55-13-2.13-19.5Z" style="fill:#2d383e; stroke-width:0px;"/><g id="d"><path d="m109.31,112.57l-.5-.25-2.86-1.41c-.29-.15-.52-.36-.7-.62-3.6-5.39-5.75-25.13-5.69-31.81,0-.68.35-1.3.92-1.69l3.03-2.08,1.01-.7,4.8,38.56Z" style="fill:#939598; stroke-width:0px;"/><path d="m110.53,114.29l-5.02-2.48c-.45-.22-.81-.54-1.09-.95-3.71-5.56-5.92-25.46-5.86-32.38.01-1,.51-1.93,1.35-2.51l5.39-3.72,5.23,42.03Zm-6.81-38.51l-2.68,1.85c-.3.21-.48.53-.48.88-.06,6.54,2.08,26.09,5.52,31.24.08.12.19.21.32.28l1.69.83-4.36-35.08Z" style="fill:#231f20; stroke-width:0px;"/><path d="m176.08,49.96c-11.84-2.74-20.42-4.19-26.91-4.13-6.35-.05-15.08,1.39-26.91,4.13l.69-4.29c9.42-3.07,21.85-4.09,26.23-4.09s16.81,1.02,26.23,4.09l.69,4.29Z" style="fill:#58595b; stroke-width:0px;"/><path d="m177.3,51.27l-1.45-.33c-12.66-2.93-20.67-4.15-26.68-4.11-5.94-.05-14.2,1.22-26.7,4.11l-1.45.33,1.02-6.36.58-.19c9.61-3.13,22.03-4.14,26.54-4.14s16.93,1.01,26.54,4.14l.58.19,1.02,6.36Zm-53.47-4.83l-.35,2.21c11.85-2.69,19.83-3.89,25.7-3.83,5.94-.04,13.69,1.1,25.68,3.83l-.35-2.21c-9.22-2.88-21.19-3.86-25.34-3.86s-16.12.98-25.34,3.86Z" style="fill:#231f20; stroke-width:0px;"/><path d="m126.96,44.15l-.13.41-1.54,4.7-.32.97c-.04.12-.08.23-.13.34l-1.92,4.58-2.75,6.56-12.99.81.18-.36,6.32-13.27c1.21-2.4,3.45-4.14,6.1-4.75l6.02-.86c.49-.05,1.18.15,1.17.88Z" style="fill:#bcbec0; stroke-width:0px;"/><path d="m105.52,63.62l.93-1.91,6.32-13.26c1.36-2.69,3.83-4.62,6.77-5.29l6.1-.87c.69-.07,1.32.12,1.74.51.38.35.58.84.57,1.38l-.05.29-1.99,6.08c-.05.15-.11.31-.18.46l-4.89,11.67-15.32.95Zm20.34-19.35l-5.96.85c-2.28.53-4.26,2.07-5.34,4.21l-5.76,12.08,10.67-.66,4.43-10.56c.05-.11.08-.19.1-.26l1.85-5.66Z" style="fill:#231f20; stroke-width:0px;"/><path d="m178.18,61.71l12.99.8-6.5-13.63c-1.21-2.4-3.45-4.14-6.1-4.75l-6.02-.86c-.5-.05-1.18.15-1.17.88l1.99,6.08c.04.12.08.23.13.35l4.67,11.13Z" style="fill:#bcbec0; stroke-width:0px;"/><path d="m192.8,63.62l-15.31-.94-4.91-11.71c-.06-.14-.11-.28-.16-.42l-2.04-6.37c-.01-.54.19-1.03.56-1.38.42-.39,1.05-.58,1.7-.52l6.06.86c3.03.69,5.49,2.62,6.85,5.28l7.24,15.19Zm-13.94-2.86l10.67.66-5.77-12.1c-1.07-2.12-3.05-3.66-5.42-4.2l-5.87-.83,1.85,5.65c.03.09.06.18.1.27l4.43,10.56Z" style="fill:#231f20; stroke-width:0px;"/><path d="m189.02,112.57l3.36-1.66c.29-.14.53-.35.7-.62,3.6-5.39,5.75-25.12,5.69-31.8,0-.68-.35-1.3-.91-1.69l-4.04-2.78-4.8,38.55Z" style="fill:#939598; stroke-width:0px;"/><path d="m187.8,114.28l5.24-42.03,5.39,3.72c.83.57,1.33,1.51,1.34,2.51.06,6.91-2.14,26.8-5.86,32.37-.28.41-.65.74-1.09.96l-5.02,2.48Zm6.81-38.51l-4.37,35.08,1.7-.84c.13-.06.23-.15.31-.28,3.45-5.16,5.58-24.7,5.52-31.24,0-.35-.18-.67-.48-.88l-2.68-1.85Z" style="fill:#231f20; stroke-width:0px;"/><path d="m194.88,74.09s-1.93,28.67-5.65,39.11c-3.55,9.97-8.57,23.73-20.04,25.49,0,0-3.72,0-5.42-2.93,3.49-.63,8.14-3.25,12.09-8.67,4.12-5.63,7.48-21.58,8.07-25.09.59-3.51.97-10.8-3.96-13.63-8.3-4.76-19.67,1.27-30.81,1.35-11.13-.08-22.51-6.11-30.81-1.35-4.93,2.83-4.55,10.12-3.96,13.63s3.96,19.46,8.07,25.09c3.96,5.42,8.61,8.03,12.09,8.67-1.7,2.93-5.41,2.93-5.41,2.93-11.47-1.76-16.5-15.52-20.05-25.49-.1-.28-.2-.57-.3-.88-3.21-10.08-5.01-33.49-5.31-37.61-.03-.41-.04-.62-.04-.62,0,0-1.44-8.53,3.67-11.8.07-.04.14-.09.21-.13,4.75-3.02,9.56-5.35,15.56-7,6.72-1.86,14.93-2.88,26.26-3.11,21.61.43,31.9,3.76,42.03,10.24,5.11,3.27,3.67,11.8,3.67,11.8Z" style="fill:#2d383e; stroke-width:0px;"/><path d="m169.27,139.69h-.08c-.18,0-4.32-.04-6.28-3.42l-.71-1.23,1.4-.25c3.92-.71,8.2-3.8,11.47-8.27,3.71-5.07,7.08-19.85,7.89-24.67.38-2.27,1.26-9.88-3.47-12.59-4.93-2.82-11.24-1.55-17.91-.2-4.03.81-8.2,1.66-12.39,1.69-4.2-.03-8.37-.87-12.4-1.69-6.68-1.35-12.99-2.62-17.92.2-4.73,2.71-3.85,10.32-3.47,12.59.81,4.81,4.18,19.58,7.89,24.67,3.26,4.47,7.55,7.56,11.47,8.27l1.4.25-.71,1.23c-1.96,3.39-6.1,3.42-6.27,3.42h-.15c-12.2-1.88-17.4-16.49-20.84-26.15-.1-.29-.21-.6-.31-.92-3.24-10.17-5.02-33.3-5.35-37.84l-.04-.63c-.05-.28-1.47-9.13,4.13-12.71.11-.07.19-.12.25-.15,5.3-3.37,10.18-5.56,15.8-7.1,6.95-1.92,15.37-2.92,26.5-3.14,22.73.45,32.82,4.15,42.59,10.4,5.45,3.48,4.26,11.94,4.13,12.76-.12,1.72-2.02,28.99-5.7,39.33-3.44,9.67-8.65,24.27-20.83,26.14h-.08Zm-20.12-86.65c-10.92.22-19.18,1.19-25.97,3.07-5.44,1.49-10.16,3.62-15.29,6.88l-.24.15c-4.47,2.86-3.21,10.7-3.2,10.78l.06.72c.2,2.76,2.02,27.21,5.26,37.38.09.3.19.59.29.85,3.27,9.19,8.22,23.07,19.17,24.82.36-.02,2.2-.16,3.57-1.34-3.94-1.24-8-4.37-11.13-8.66-4.23-5.79-7.63-21.85-8.25-25.51-.44-2.59-1.4-11.3,4.45-14.66,5.58-3.2,12.25-1.85,19.31-.43,3.94.79,8.01,1.62,12,1.65,3.98-.03,8.05-.85,11.99-1.65,7.06-1.42,13.72-2.77,19.3.43,5.85,3.36,4.89,12.07,4.45,14.66-.62,3.67-4.02,19.74-8.25,25.51-4.13,5.66-8.48,7.83-11.13,8.66,1.37,1.18,3.21,1.32,3.58,1.34,10.94-1.75,15.89-15.63,19.16-24.82,3.63-10.2,5.57-38.56,5.59-38.85v-.1c.02-.08,1.27-7.93-3.22-10.8-9.47-6.05-19.29-9.64-41.51-10.08Z" style="fill:#231f20; stroke-width:0px;"/><path d="m183.94,102.01c-.59,3.51-3.96,19.46-8.07,25.09-3.96,5.42-8.6,8.03-12.09,8.67-.14.02-.28.04-.41.07-.99.14-2.01-2.1.66-2.96,1.62-.52,4.13-1.92,7.31-5.64,3.18-3.72,13.92-28.71,2.76-32.18-8.07-2.51-15.1,1.02-24.92,1.67-9.81-.65-16.85-4.18-24.92-1.67-11.16,3.47-.41,28.46,2.77,32.18,3.17,3.72,5.69,5.12,7.31,5.64,2.67.86,1.65,3.09.66,2.96-.13-.02-.27-.04-.41-.07-3.48-.63-8.14-3.25-12.09-8.67-4.11-5.63-7.48-21.58-8.07-25.09-.59-3.51-.97-10.8,3.96-13.63,8.3-4.76,19.68,1.27,30.81,1.35,11.14-.08,22.51-6.11,30.81-1.35,4.93,2.83,4.55,10.12,3.96,13.63Z" style="fill:#e6e7e8; stroke-width:0px;"/><path d="m135.06,136.83c-.07,0-.15,0-.22-.02l-.43-.07c-4.44-.8-9.19-4.19-12.75-9.06-4.23-5.79-7.64-21.85-8.25-25.51-.44-2.59-1.4-11.3,4.45-14.66,5.58-3.2,12.25-1.85,19.31-.43,3.94.79,8.01,1.62,12,1.65,3.98-.03,8.05-.85,11.99-1.65,7.06-1.42,13.72-2.77,19.3.43,5.85,3.36,4.89,12.07,4.45,14.66h0c-.62,3.67-4.02,19.73-8.25,25.51-5.13,7.03-10.61,8.68-12.72,9.06l-.42.07c-.97.13-1.91-.59-2.15-1.66-.24-1.07.22-2.56,2.34-3.24,1.44-.46,3.8-1.76,6.86-5.33,2.57-3,9.27-18.62,7.02-26.45-.63-2.18-1.87-3.53-3.79-4.13-4.98-1.55-9.57-.68-14.89.32-3.01.57-6.13,1.16-9.66,1.39h-.07s-.07,0-.07,0c-3.53-.23-6.64-.82-9.66-1.39-5.32-1.01-9.92-1.88-14.9-.32-1.92.6-3.16,1.95-3.79,4.12-2.26,7.83,4.46,23.45,7.02,26.45,3.05,3.58,5.41,4.88,6.85,5.33,2.12.68,2.58,2.17,2.34,3.24-.22.98-1.04,1.68-1.9,1.68Zm-9-49.28c-2.61,0-5.04.45-7.21,1.69-4.73,2.71-3.86,10.32-3.47,12.59.81,4.81,4.18,19.58,7.89,24.67,3.26,4.47,7.55,7.56,11.47,8.27l.23.04c.03-.06.06-.15.05-.25-.05-.28-.42-.56-1.01-.74-1.69-.54-4.4-2.01-7.76-5.94-2.41-2.82-10.07-19.14-7.42-28.3.82-2.83,2.54-4.68,5.12-5.48,5.45-1.7,10.51-.74,15.87.27,2.93.55,5.97,1.13,9.35,1.36,3.39-.23,6.42-.8,9.36-1.36,5.35-1.01,10.41-1.97,15.86-.27,2.58.8,4.3,2.65,5.12,5.48,2.64,9.17-5.01,25.48-7.42,28.3-3.36,3.93-6.08,5.4-7.77,5.94-.58.19-.95.46-1,.74-.02.11.01.19.04.25l.26-.04c3.89-.7,8.18-3.8,11.44-8.27,3.71-5.07,7.09-19.85,7.89-24.67h0c.38-2.27,1.26-9.88-3.47-12.59-4.93-2.82-11.23-1.55-17.91-.2-4.03.81-8.2,1.66-12.39,1.69-4.2-.03-8.37-.87-12.4-1.69-3.75-.76-7.38-1.49-10.71-1.49Z" style="fill:#231f20; stroke-width:0px;"/></g></svg>