<?xml version="1.0" encoding="UTF-8"?><svg id="b" xmlns="http://www.w3.org/2000/svg" viewBox="0 0 300.48 304.92"><path d="M150,190V105C150,52,218,52,218,105V120" fill="none" stroke="#231f20" stroke-width="25" stroke-linecap="round" stroke-linejoin="round"/><path d="M150,190V105C150,52,218,52,218,105V120" fill="none" stroke="#fff" stroke-width="18" stroke-linecap="round" stroke-linejoin="round"/><path d="M205,118L231,118L218,152Z" fill="#fff" stroke="#231f20" stroke-width="3" stroke-linejoin="round"/><path d="m216.11,243.89v6.1c-36.1,0-95.62,0-131.74,0v-6.1c-.61-13.7,13.41-18.54,25.73-22.44,4.5-1.42,8.31-4.54,10.46-8.74,5.92-11.56,6.86-29,6.77-40.41h44.71c-.08,11.43.83,28.28,6.5,39.86,2.15,4.39,6.12,7.62,10.8,9.04,12.53,3.79,27.29,8.81,26.77,22.69Z" fill="#fff" stroke="#231f20" stroke-width="3" stroke-linejoin="round"/><ellipse cx="150.2" cy="172.3" rx="30" ry="7" fill="#e3e4e7" stroke="#231f20" stroke-width="3"/></svg>
