<?xml version="1.0" encoding="UTF-8"?><svg id="b" xmlns="http://www.w3.org/2000/svg" viewBox="0 0 300.48 304.92"><g id="c"><path d="m215.35,261.84c-32.99,0-99.38,0-132.36,0,1.13-38.75,26.42-25.14,34.46-46.48,2.86-9.9,6.66-21.76,6.34-32.11,0,0,0-15.42,0-15.42.31-6.09-25.01-7.8-34.41-7.06-1.42,0-2.57-.59-2.57-1.33v-13.25c0-.63.86-1.17,2.05-1.3,0-.02,45.67-4.45,45.62-4.51-29.01-13.59-20.78-59.72,11.5-62.09,35.64-3.72,49.91,46.7,17.88,62.09-.04.04,45.6,4.5,45.61,4.51,1.2.13,2.05.67,2.05,1.3v13.25c0,.74-1.15,1.33-2.56,1.33-9.43-.73-34.7.96-34.41,7.06,0,0,0,15.45,0,15.45-.33,10.31,3.5,22.23,6.33,32.08,7.96,21.25,33.42,7.83,34.46,46.48Z" style="fill:#2d383e; stroke-width:0px;"/><path d="m160.94,171.85l13.47-5.36c1.01,27.71,6.11,49.81,8.76,54,4.69,7.42,21.26,15.65,24.13,16.38-44.31-6.88-40.62-27.71-46.35-65.02Z" style="fill:#1b2326; stroke-width:0px;"/><path d="m129.47,82.73l7.62,14.01c-14.69-2.96-17.88,12.88-14.63,22.44-12.68-20.76-5.25-27.27,7.01-36.45Z" style="fill:#1b2326; stroke-width:0px;"/><path d="m199.95,150.69c0,1.2-.48,6.22-.48,10.07-17.97,1.13-24.81,2.48-25.57,7.22-4.58-8.75,20.55-9.22,26.05-17.29Z" style="fill:#1b2326; stroke-width:0px;"/><path d="m181.74,110.32c0,11.13-3.8,22.77-12.55,29.37l-25.09.46c20.41-3.53,35.86-11.72,36.58-30.38,1.18,3.41,1.06-3.22,1.06.56Z" style="fill:#1b2326; stroke-width:0px;"/><path d="m216.89,263.34h-1.54c-32.99-.01-99.38-.01-132.36,0h-1.54s.04-1.54.04-1.54c.7-24.03,10.45-28.74,19.88-33.29,5.98-2.89,11.62-5.61,14.66-13.62l.79-2.7c2.7-9.25,5.76-19.72,5.48-28.89,0-.25,0-15.47,0-15.47,0-.17.02-.45-.46-.92-3.96-3.85-23.61-5.33-32.33-4.64h-.12c-2.36,0-4.07-1.19-4.07-2.83v-13.25c0-1.45,1.36-2.57,3.39-2.79v.06c.74-.14,1.94-.26,4-.46l9.75-.95c8.75-.86,20.68-2.02,27.16-2.67-11.08-7.28-16.45-20.36-13.83-34.59,2.93-15.88,14.74-26.86,30.09-27.99,19.31-2.02,31.95,11.13,35.89,25.05,3.58,12.65.71,28.51-13.05,37.52,7.84.78,23.67,2.33,32.44,3.19,5.54.54,7.62.75,8.48.88v-.05c2.03.22,3.39,1.34,3.39,2.79v13.25c0,1.64-1.71,2.83-4.06,2.83h-.12c-8.73-.68-28.39.81-32.33,4.63-.49.47-.47.76-.47.86,0,.27,0,15.52,0,15.52-.29,9.13,2.75,19.58,5.44,28.79.28.96.55,1.9.82,2.82,3.01,7.96,8.66,10.7,14.64,13.6,9.02,4.37,19.25,9.33,19.89,33.31l.04,1.54Zm-67.72-3.01c24.07,0,48.15,0,64.63,0-.95-20.82-9.31-24.87-18.15-29.15-6.26-3.04-12.74-6.17-16.16-15.3l-.04-.11c-.27-.94-.55-1.89-.83-2.87-2.75-9.43-5.86-20.12-5.56-29.68v-12.98c0-1.06,0-1.81.03-2.34h-.03c-.04-.79.17-1.98,1.38-3.15,5.38-5.22,27.13-6.05,34.58-5.48.46,0,.81-.1,1.01-.19v-12.52c-.14-.06-.38-.14-.71-.17h-.02c-.29-.03-3.65-.36-8.44-.83-6.59-.65-15.88-1.56-23.51-2.31-3.82-.38-7.23-.71-9.68-.96q-4.92-.49-5.23-1.43l-.41-1.25,1.19-.57c15.79-7.59,19.24-23.73,15.66-36.37-3.6-12.71-15.13-24.72-32.74-22.88-16.99,1.25-25.38,14.54-27.4,25.55-2.04,11.05,1.03,26.5,16.38,33.69l1.29.6-.53,1.32q-.35.85-4.34,1.26c-1.94.2-4.67.47-7.81.78-6.29.62-14.26,1.4-20.97,2.05-6.64.65-12.43,1.22-13.52,1.33l-.2.02c-.34.04-.57.11-.71.18v12.52c.2.09.55.18,1.02.19,8.08-.62,29.44.48,34.59,5.49,1.2,1.17,1.41,2.36,1.37,3.15v12.94c0,1.1,0,1.85-.03,2.36h.03c.3,9.64-2.83,20.36-5.6,29.82l-.84,2.86c-3.46,9.17-9.93,12.29-16.19,15.31-8.8,4.25-17.13,8.27-18.12,29.13,16.47,0,40.55,0,64.62,0Z" style="fill:#231f20; stroke-width:0px;"/><g id="d"><path d="m107.54,138.76c-.15-.43-.96-.97-1.4-1.09-1.21-.33-13-1.25-15.88-1.81-3.18-4.94-8.74-9.22-14.18-11.39-5.35-2.13-14.56-3.87-15.49,4.1-10.58.32-12.36,19.51-11.21,26.9.44,2.77,1.66,5.79,3.61,7.83,5.52,5.79,25.5,6.58,32.97,4.07.16.16.63.33.81.34,3.67.3,16.09,2.27,16.9,2.02.93-.3,2.28-6.45,2.54-7.65.88-4.21,1.48-8.68,1.6-12.99.04-1.23-.09-9.83-.27-10.33Zm-54.72,19.54c-2.36-5.81-1.12-21.07,3.95-25.4,1.44-1.23,2.44-1.6,4.35-1.85.4.21.31.48.33.51-1.34.56-2.55.96-2.15,2.69,2.36.51,9.1,1.72,10.69,2.22,1.77.54,2.93,1.21,3.78,2.9,2.32,4.61,1.71,12.43-.92,16.87-1.03,1.75-2.25,2.77-4.07,3.64-1.64.79-4.6,1.31-4.05,2.04-2.26.36-4.55.42-6.83.5.86.69,1.91,1.05,2.88,1.52.43.21.88.5,1.31.73-4.53-1.09-7.36-1.65-9.27-6.37Z" style="fill:#0b0c0d; stroke-width:0px;"/><path d="m88.7,137.98c-.86,9.02-1.78,18.04-3.31,26.98-7.64,1.87-15.69,1.55-23.3-.29-.43-.23-.88-.52-1.31-.73,6.94-.02,14.76-2.01,17.76-8.95,2.03-4.66,2.32-13.01-.78-17.21-3.16-4.29-9.62-3.79-12.18-5.41-3.44-2.16-3.94-8.04,4.32-7.03,6.8.84,15.23,6.75,18.8,12.64Z" style="fill:#a7a9ac; stroke-width:0px;"/><path d="m72.85,156.24c-1.03,1.75-2.25,2.77-4.07,3.64-1.64.79-4.6,1.31-4.05,2.04-2.26.36-4.55.42-6.83.5.86.69,1.91,1.05,2.88,1.52.43.21.88.5,1.31.73-4.53-1.09-7.36-1.65-9.27-6.37-2.36-5.81-1.12-21.07,3.95-25.4,1.44-1.23,2.44-1.6,4.35-1.85.4.21.31.48.33.51-1.34.56-2.55.96-2.15,2.69,2.36.51,9.1,1.72,10.69,2.22,1.77.54,2.93,1.21,3.78,2.9,2.32,4.61,1.71,12.43-.92,16.87Z" style="fill:#e3e4e7; stroke-width:0px;"/><path d="m72.5,158.32c-.6.63-2.17,1.92-2.99,2.13-.57.15-.95.19-.73-.57,1.82-.87,3.04-1.89,4.07-3.64,2.63-4.44,3.24-12.26.92-16.87-.85-1.69-2.01-2.36-3.78-2.9-1.59-.5-8.33-1.71-10.69-2.22-.4-1.73.81-2.13,2.15-2.69.53.56.79,1.3,1.38,1.81,2.54.75,5.14,1.31,7.61,2.27.97.37,1.96.62,2.86,1.3,5.43,4.11,3.82,16.61-.8,21.38Z" style="fill:#b1b5b9; stroke-width:0px;"/><path d="m69.51,160.45c-1.36.91-3.19,1.22-4.78,1.47-.55-.73,2.41-1.25,4.05-2.04-.22.76.16.72.73.57Z" style="fill:#c6cbce; stroke-width:0px;"/><path d="m88.08,164.46c.58-.25,1.18-.19,1.79-.22.09,0,.02-.22.03-.22,1.45-.03,8.81,1.22,11.25,1.38,2.15-7.75,2.67-15.75,2.66-23.76-.23-.5-8.14-.86-10.82-1.49-.21-.05-.31.17-.37.16.09-.4-.67-.22-1.46-1.14.02-.09-.07-.42.19-.69q6.92.89,13.84,1.78c.41,9.05-.37,18.17-2.94,26.88l-14.11-1.8-.18-.14c.15-.22.11-.49.13-.73Z" style="fill:#b1b5b9; stroke-width:0px;"/><path d="m91.16,139.17c.79.92,1.56.75,1.46,1.14-.59,6.5-1.19,13.04-2.13,19.5-.2,1.37-.68,2.9-.59,4.21-.01,0,.06.22-.03.22-.61.03-1.21-.03-1.79.22.12-1.69,1.45-9.59,1.85-12.85.34-2.79,1.01-11.41,1.23-12.45Z" style="fill:#e3e4e7; stroke-width:0px;"/><path d="m92.62,140.31c.06.02.16-.2.37-.16,2.68.62,10.59.99,10.82,1.49.01,8.01-.51,16.01-2.66,23.76-2.44-.16-9.8-1.41-11.25-1.38-.1-1.31.39-2.84.59-4.21.94-6.46,1.55-13,2.13-19.5Z" style="fill:#bcbec0; stroke-width:0px;"/></g><g id="e"><path d="m239.89,128.57c-.93-7.97-10.14-6.23-15.49-4.1-5.44,2.17-11,6.45-14.18,11.39-2.88.56-14.67,1.48-15.88,1.81-.44.12-1.25.66-1.4,1.09-.18.5-.31,9.1-.27,10.33.12,4.31.72,8.78,1.61,12.99.25,1.2,1.6,7.35,2.54,7.65.81.25,13.22-1.72,16.89-2.02.18-.01.66-.18.82-.34,7.46,2.51,27.44,1.72,32.97-4.07,1.95-2.04,3.17-5.06,3.6-7.83,1.15-7.39-.62-26.58-11.21-26.9Zm7.78,29.73c-1.92,4.72-4.75,5.28-9.27,6.37.42-.23.87-.52,1.3-.73.97-.47,2.03-.83,2.89-1.52-2.28-.08-4.57-.14-6.83-.5.55-.73-2.42-1.25-4.05-2.04.21.76-.16.72-.74.57-.82-.21-2.38-1.5-2.99-2.13-4.61-4.77-6.22-17.27-.8-21.38.9-.68,1.89-.93,2.86-1.3,2.48-.96,5.07-1.52,7.61-2.27.59-.51.86-1.25,1.38-1.81.02-.03-.06-.3.34-.51,1.9.25,2.91.62,4.35,1.85,5.06,4.33,6.31,19.59,3.95,25.4Z" style="fill:#0b0c0d; stroke-width:0px;"/><path d="m239.7,163.94c-.43.21-.88.5-1.3.73-7.62,1.84-15.66,2.16-23.3.29-1.53-8.94-2.46-17.96-3.32-26.98,3.57-5.89,12-11.8,18.8-12.64,8.26-1.01,7.76,4.87,4.33,7.03-2.57,1.62-9.03,1.12-12.19,5.41-3.09,4.2-2.8,12.55-.78,17.21,3,6.94,10.82,8.93,17.76,8.95Z" style="fill:#d1d3d4; stroke-width:0px;"/><path d="m247.67,158.3c-1.92,4.72-4.75,5.28-9.27,6.37.42-.23.87-.52,1.3-.73.97-.47,2.03-.83,2.89-1.52-2.28-.08-4.57-.14-6.83-.5.55-.73-2.42-1.25-4.05-2.04-1.82-.87-3.04-1.89-4.08-3.64-2.63-4.44-3.24-12.26-.91-16.87.85-1.69,2-2.36,3.77-2.9,1.59-.5,8.33-1.71,10.69-2.22.4-1.73-.81-2.13-2.15-2.69.02-.03-.06-.3.34-.51,1.9.25,2.91.62,4.35,1.85,5.06,4.33,6.31,19.59,3.95,25.4Z" style="fill:#e3e4e7; stroke-width:0px;"/><path d="m226.72,139.37c-2.33,4.61-1.72,12.43.91,16.87,1.04,1.75,2.26,2.77,4.08,3.64.21.76-.16.72-.74.57-.82-.21-2.38-1.5-2.99-2.13-4.61-4.77-6.22-17.27-.8-21.38.9-.68,1.89-.93,2.86-1.3,2.48-.96,5.07-1.52,7.61-2.27.59-.51.86-1.25,1.38-1.81,1.34.56,2.55.96,2.15,2.69-2.36.51-9.1,1.72-10.69,2.22-1.77.54-2.92,1.21-3.77,2.9Z" style="fill:#b1b5b9; stroke-width:0px;"/><path d="m235.76,161.92c-1.6-.25-3.42-.56-4.79-1.47.58.15.95.19.74-.57,1.63.79,4.6,1.31,4.05,2.04Z" style="fill:#c6cbce; stroke-width:0px;"/><path d="m212.4,164.46c-.58-.25-1.18-.19-1.79-.22-.09,0-.02-.22-.03-.22-1.45-.03-8.81,1.22-11.25,1.38-2.15-7.75-2.67-15.75-2.66-23.76.23-.5,8.14-.86,10.82-1.49.21-.05.31.17.37.16-.09-.4.67-.22,1.46-1.14-.02-.09.07-.42-.19-.69q-6.92.89-13.84,1.78c-.41,9.05.37,18.17,2.94,26.88l14.11-1.8.18-.14c-.15-.22-.11-.49-.13-.73Z" style="fill:#b1b5b9; stroke-width:0px;"/><path d="m209.32,139.17c-.79.92-1.56.75-1.46,1.14.59,6.5,1.19,13.04,2.13,19.5.2,1.37.68,2.9.59,4.21.01,0-.06.22.03.22.61.03,1.21-.03,1.79.22-.12-1.69-1.45-9.59-1.85-12.85-.34-2.79-1.01-11.41-1.23-12.45Z" style="fill:#e3e4e7; stroke-width:0px;"/><path d="m207.85,140.31c-.06.02-.16-.2-.37-.16-2.68.62-10.59.99-10.82,1.49-.01,8.01.51,16.01,2.66,23.76,2.44-.16,9.8-1.41,11.25-1.38.1-1.31-.39-2.84-.59-4.21-.94-6.46-1.55-13-2.13-19.5Z" style="fill:#bcbec0; stroke-width:0px;"/></g><g id="f"><path d="m109.31,113.57l-.5-.25-2.86-1.41c-.29-.15-.52-.36-.7-.62-3.6-5.39-5.75-25.13-5.69-31.81,0-.68.35-1.3.92-1.69l3.03-2.08,1.01-.7,4.8,38.56Z" style="fill:#939598; stroke-width:0px;"/><path d="m110.53,115.29l-5.02-2.48c-.45-.23-.81-.55-1.09-.95-3.71-5.56-5.92-25.46-5.86-32.38.01-1,.51-1.93,1.35-2.51l5.39-3.72,5.23,42.03Zm-6.81-38.51l-2.68,1.85c-.3.21-.48.53-.48.88-.06,6.54,2.08,26.09,5.52,31.24.08.12.19.21.32.28l1.69.83-4.36-35.08Z" style="fill:#231f20; stroke-width:0px;"/><path d="m176.08,50.96c-11.84-2.74-20.42-4.19-26.91-4.13-6.35-.05-15.08,1.39-26.91,4.13l.69-4.29c9.42-3.07,21.85-4.09,26.23-4.09s16.81,1.02,26.23,4.09l.69,4.29Z" style="fill:#58595b; stroke-width:0px;"/><path d="m177.3,52.27l-1.45-.33c-12.66-2.93-20.63-4.14-26.68-4.11-5.96-.05-14.2,1.22-26.69,4.11l-1.45.33,1.02-6.36.58-.19c9.6-3.13,22.03-4.14,26.54-4.14s16.93,1.01,26.54,4.14l.58.19,1.02,6.36Zm-53.47-4.83l-.35,2.21c11.85-2.69,19.85-3.86,25.7-3.83,5.98-.05,13.69,1.1,25.68,3.83l-.35-2.21c-9.21-2.88-21.19-3.85-25.34-3.85s-16.12.98-25.34,3.85Z" style="fill:#231f20; stroke-width:0px;"/><path d="m126.95,45.15l-.13.41-1.54,4.7-.32.97c-.04.12-.08.23-.13.34l-1.92,4.58-2.75,6.56-12.99.81.18-.36,6.32-13.27c1.21-2.4,3.45-4.14,6.1-4.75l6.02-.86c.49-.05,1.18.15,1.17.88Z" style="fill:#bcbec0; stroke-width:0px;"/><path d="m105.52,64.62l.93-1.91,6.32-13.26c1.36-2.69,3.83-4.62,6.77-5.29l6.1-.87c.68-.07,1.32.12,1.74.51.38.35.58.84.57,1.38l-.05.29-1.99,6.08c-.05.15-.11.31-.18.46l-4.89,11.67-15.32.95Zm20.34-19.35l-5.95.85c-2.29.53-4.26,2.07-5.34,4.21l-5.76,12.08,10.67-.66,4.43-10.56c.05-.11.08-.19.1-.26l1.85-5.66Z" style="fill:#231f20; stroke-width:0px;"/><path d="m178.17,62.71l12.99.8-6.5-13.63c-1.21-2.4-3.45-4.14-6.1-4.75l-6.02-.86c-.5-.05-1.18.15-1.17.88l1.99,6.08c.04.12.08.23.13.35l4.67,11.13Z" style="fill:#bcbec0; stroke-width:0px;"/><path d="m192.8,64.62l-15.31-.94-4.91-11.71c-.06-.14-.11-.28-.16-.42l-2.04-6.37c0-.54.19-1.03.56-1.38.42-.39,1.05-.58,1.7-.52l6.06.86c3.03.7,5.5,2.62,6.85,5.28l7.24,15.19Zm-13.94-2.86l10.67.66-5.77-12.1c-1.07-2.12-3.05-3.66-5.42-4.2l-5.87-.83,1.85,5.65c.03.09.06.18.1.27l4.43,10.56Z" style="fill:#231f20; stroke-width:0px;"/><path d="m189.02,113.57l3.36-1.66c.29-.14.53-.35.7-.62,3.6-5.39,5.75-25.12,5.69-31.8,0-.68-.35-1.3-.91-1.69l-4.04-2.78-4.8,38.55Z" style="fill:#939598; stroke-width:0px;"/><path d="m187.8,115.28l5.24-42.03,5.39,3.72c.83.57,1.33,1.51,1.34,2.51.06,6.91-2.14,26.8-5.86,32.37-.27.41-.65.74-1.09.96l-5.03,2.48Zm6.81-38.51l-4.37,35.08,1.7-.84c.12-.06.23-.15.31-.28,3.45-5.16,5.58-24.7,5.52-31.24,0-.34-.18-.67-.48-.88l-2.68-1.85Z" style="fill:#231f20; stroke-width:0px;"/><path d="m194.88,75.09s-1.93,28.67-5.65,39.11c-3.55,9.97-8.57,23.73-20.04,25.49,0,0-3.72,0-5.42-2.93,3.49-.63,8.14-3.25,12.09-8.67,4.12-5.63,7.48-21.58,8.07-25.09.59-3.51.97-10.8-3.96-13.63-8.3-4.76-19.67,1.27-30.81,1.35-11.13-.08-22.51-6.11-30.81-1.35-4.93,2.83-4.55,10.12-3.96,13.63s3.96,19.46,8.07,25.09c3.96,5.42,8.61,8.03,12.09,8.67-1.7,2.93-5.41,2.93-5.41,2.93-11.47-1.76-16.5-15.52-20.05-25.49-.1-.28-.2-.57-.3-.88-3.21-10.08-5.01-33.49-5.31-37.61-.03-.41-.04-.62-.04-.62,0,0-1.44-8.53,3.67-11.8.07-.04.14-.09.21-.13,4.75-3.02,9.56-5.35,15.56-7,6.72-1.86,14.93-2.88,26.26-3.11,21.61.43,31.9,3.76,42.03,10.24,5.11,3.27,3.67,11.8,3.67,11.8Z" style="fill:#e6e7e8; stroke-width:0px;"/><path d="m169.26,140.69h-.08c-.18,0-4.32-.04-6.28-3.43l-.71-1.23,1.4-.25c3.92-.71,8.2-3.8,11.47-8.27,3.71-5.07,7.08-19.85,7.89-24.67.38-2.27,1.26-9.88-3.47-12.59-4.93-2.82-11.23-1.55-17.91-.2-4.03.81-8.21,1.66-12.39,1.69-4.2-.03-8.37-.87-12.4-1.69-6.68-1.35-12.99-2.62-17.92.2-4.73,2.71-3.86,10.32-3.47,12.59.81,4.81,4.18,19.58,7.89,24.67,3.26,4.47,7.55,7.56,11.47,8.27l1.4.25-.71,1.23c-1.96,3.39-6.1,3.43-6.27,3.43h-.15c-12.2-1.88-17.4-16.49-20.84-26.15-.11-.3-.21-.61-.31-.92-3.24-10.17-5.02-33.3-5.35-37.84l-.04-.63c-.05-.28-1.47-9.13,4.13-12.71.11-.07.19-.12.25-.15,5.3-3.37,10.17-5.56,15.8-7.1,6.95-1.92,15.37-2.92,26.5-3.14,22.73.45,32.83,4.15,42.59,10.4,5.45,3.48,4.26,11.94,4.13,12.76-.12,1.72-2.02,28.99-5.7,39.34-3.44,9.67-8.65,24.27-20.83,26.14h-.08Zm-20.12-86.65c-10.92.22-19.18,1.19-25.97,3.07-5.44,1.49-10.16,3.62-15.29,6.88l-.24.15c-4.46,2.85-3.21,10.7-3.2,10.78l.06.72c.2,2.76,2.02,27.21,5.26,37.38.09.29.19.58.28.84,3.28,9.2,8.22,23.08,19.17,24.83.36-.02,2.2-.16,3.57-1.34-3.94-1.24-8-4.37-11.13-8.66-4.23-5.79-7.63-21.85-8.25-25.51-.44-2.59-1.4-11.3,4.45-14.66,5.58-3.2,12.25-1.85,19.31-.43,3.94.79,8.01,1.62,12,1.65,3.98-.03,8.05-.85,12-1.65,7.06-1.43,13.72-2.77,19.3.43,5.85,3.36,4.89,12.07,4.45,14.66-.62,3.67-4.03,19.73-8.25,25.51-4.13,5.66-8.48,7.83-11.13,8.66,1.37,1.18,3.21,1.32,3.58,1.34,10.94-1.75,15.89-15.63,19.16-24.82,3.63-10.2,5.57-38.56,5.59-38.85v-.1c.02-.08,1.27-7.93-3.22-10.8-9.47-6.05-19.29-9.64-41.51-10.08Z" style="fill:#231f20; stroke-width:0px;"/><path d="m183.94,103.01c-.59,3.51-3.96,19.46-8.07,25.09-3.96,5.42-8.6,8.03-12.09,8.67-.14.02-.28.04-.41.07-.99.14-2.01-2.1.66-2.96,1.62-.52,4.13-1.92,7.31-5.64,3.18-3.72,13.92-28.71,2.76-32.18-8.07-2.51-15.1,1.02-24.92,1.67-9.81-.65-16.85-4.18-24.92-1.67-11.16,3.47-.41,28.46,2.77,32.18,3.17,3.72,5.69,5.12,7.31,5.64,2.67.86,1.65,3.09.66,2.96-.13-.02-.27-.04-.41-.07-3.48-.63-8.14-3.25-12.09-8.67-4.11-5.63-7.48-21.58-8.07-25.09-.59-3.51-.97-10.8,3.96-13.63,8.3-4.76,19.68,1.27,30.81,1.35,11.14-.08,22.51-6.11,30.81-1.35,4.93,2.83,4.55,10.12,3.96,13.63Z" style="fill:#bcbec0; stroke-width:0px;"/><path d="m135.06,137.83c-.07,0-.15,0-.22-.02l-.43-.07c-4.44-.8-9.19-4.19-12.75-9.06-4.23-5.79-7.64-21.85-8.25-25.51-.44-2.59-1.4-11.3,4.45-14.66,5.58-3.2,12.25-1.85,19.31-.43,3.94.79,8.01,1.62,12,1.65,3.98-.03,8.05-.85,12-1.65,7.06-1.43,13.72-2.77,19.3.43,5.85,3.36,4.89,12.07,4.45,14.66-.62,3.67-4.03,19.73-8.25,25.51-5.13,7.03-10.61,8.68-12.72,9.06l-.43.07c-.97.13-1.9-.59-2.15-1.66-.24-1.07.22-2.56,2.34-3.24,1.44-.46,3.8-1.76,6.86-5.33,2.57-3,9.27-18.62,7.02-26.45-.63-2.18-1.87-3.53-3.79-4.12-4.97-1.55-9.57-.68-14.89.32-3.01.57-6.13,1.16-9.66,1.39h-.07s-.07,0-.07,0c-3.53-.23-6.64-.82-9.65-1.39-5.32-1.01-9.92-1.87-14.9-.32-1.92.6-3.16,1.95-3.79,4.12-2.26,7.83,4.46,23.45,7.02,26.45,3.05,3.58,5.41,4.87,6.85,5.33,2.12.68,2.58,2.17,2.34,3.23-.22.98-1.04,1.68-1.9,1.68Zm-9-49.27c-2.61,0-5.04.45-7.21,1.69-4.73,2.71-3.86,10.32-3.47,12.59.81,4.81,4.18,19.58,7.89,24.67,3.26,4.47,7.55,7.56,11.47,8.27l.23.04c.03-.05.06-.15.05-.25-.05-.28-.42-.56-1.01-.74-1.69-.54-4.4-2.01-7.76-5.94-2.41-2.82-10.07-19.14-7.42-28.3.82-2.83,2.54-4.68,5.12-5.48,5.46-1.7,10.51-.74,15.87.27,2.93.55,5.97,1.13,9.35,1.35,3.39-.23,6.42-.8,9.36-1.36,5.35-1.01,10.41-1.96,15.86-.27,2.58.8,4.3,2.65,5.12,5.48,2.64,9.16-5.01,25.48-7.42,28.3-3.36,3.93-6.08,5.4-7.77,5.94-.58.19-.95.46-1,.74-.02.11.01.19.04.25l.26-.04c3.89-.7,8.18-3.8,11.44-8.27,3.71-5.07,7.09-19.85,7.89-24.67.38-2.27,1.26-9.88-3.47-12.59-4.93-2.82-11.24-1.55-17.91-.2-4.03.81-8.21,1.66-12.39,1.69-4.2-.03-8.37-.87-12.4-1.69-3.75-.76-7.38-1.49-10.71-1.49Z" style="fill:#231f20; stroke-width:0px;"/></g></g></svg>