<svg width="40" height="40" viewBox="0 0 40 40" fill="none" xmlns="http://www.w3.org/2000/svg">
    <path
        d="M0 4C0 1.79086 1.79086 0 4 0H36C38.2091 0 40 1.79086 40 4V32L32 40H4C1.79086 40 0 38.2091 0 36V4Z"
        fill="#EFEFF1" />
    <path d="M40 32H34.8593C33.2801 32 32 33.2801 32 34.8593V40L40 32Z" fill="#F0423D" />
    <rect x="10" y="10" width="20" height="20" rx="2" fill="#F0423D" />
    <path
        d="M12.9956 23.1415V17.4365H14.9556C15.2706 17.4365 15.5652 17.4686 15.8394 17.5328C16.1135 17.5911 16.3527 17.6932 16.5569 17.839C16.761 17.979 16.9214 18.1686 17.0381 18.4078C17.1606 18.6411 17.2219 18.9299 17.2219 19.274C17.2219 19.6065 17.1606 19.8953 17.0381 20.1403C16.9214 20.3853 16.761 20.5865 16.5569 20.744C16.3527 20.9015 16.1164 21.0182 15.8481 21.094C15.5798 21.1699 15.2939 21.2078 14.9906 21.2078H14.2819V23.1415H12.9956ZM14.2819 20.184H14.9119C15.6119 20.184 15.9619 19.8807 15.9619 19.274C15.9619 18.9765 15.8685 18.7665 15.6819 18.644C15.4952 18.5215 15.2269 18.4603 14.8769 18.4603H14.2819V20.184Z"
        fill="white" />
    <path
        d="M18.208 23.1415V17.4365H19.818C20.2555 17.4365 20.6493 17.4919 20.9993 17.6028C21.3493 17.7136 21.6497 17.8857 21.9005 18.119C22.1513 18.3465 22.3438 18.6382 22.478 18.994C22.6122 19.3499 22.6793 19.7728 22.6793 20.2628C22.6793 20.7528 22.6122 21.1786 22.478 21.5403C22.3438 21.9019 22.1543 22.2024 21.9093 22.4415C21.6643 22.6749 21.3697 22.8499 21.0255 22.9665C20.6872 23.0832 20.308 23.1415 19.888 23.1415H18.208ZM19.4943 22.1003H19.7393C19.9843 22.1003 20.2059 22.0682 20.4043 22.004C20.6026 21.9399 20.7718 21.8378 20.9118 21.6978C21.0518 21.5519 21.1597 21.3624 21.2355 21.129C21.3172 20.8957 21.358 20.6069 21.358 20.2628C21.358 19.9244 21.3172 19.6415 21.2355 19.414C21.1597 19.1807 21.0518 18.9969 20.9118 18.8628C20.7718 18.7228 20.6026 18.6236 20.4043 18.5653C20.2059 18.5069 19.9843 18.4778 19.7393 18.4778H19.4943V22.1003Z"
        fill="white" />
    <path
        d="M23.7622 23.1415V17.4365H27.3585V18.5215H25.0485V19.8428H27.026V20.9278H25.0485V23.1415H23.7622Z"
        fill="white" />
</svg>
