<svg width="24" height="24" viewBox="0 0 24 24" fill="none" xmlns="http://www.w3.org/2000/svg">
<path fill-rule="evenodd" clip-rule="evenodd" d="M3 4.5C3 3.67157 3.67157 3 4.5 3H19.5C20.3284 3 21 3.67157 21 4.5V8.625C21 9.03921 20.6642 9.375 20.25 9.375C19.8358 9.375 19.5 9.03921 19.5 8.625V5.41543L12.3572 9.28443C12.1344 9.40514 11.8656 9.40514 11.6428 9.28443L4.5 5.41541V15H7.5C7.91421 15 8.25 15.3358 8.25 15.75C8.25 16.1642 7.91421 16.5 7.5 16.5H4.5C3.67157 16.5 3 15.8284 3 15V4.5ZM12 7.772L5.95939 4.5H18.0406L12 7.772Z" fill="#555962"/>
<path fill-rule="evenodd" clip-rule="evenodd" d="M19.375 17.375C19.375 17.5905 19.4606 17.7971 19.613 17.9495C19.7654 18.1019 19.972 18.1875 20.1875 18.1875C20.403 18.1875 20.6097 18.1019 20.762 17.9495C20.9138 17.7977 20.9994 17.592 21 17.3774L21 17.375V16.1271L21 16.125C21 15.1608 20.7141 14.2183 20.1784 13.4166C19.6427 12.6149 18.8814 11.9901 17.9906 11.6211C17.0998 11.2521 16.1196 11.1556 15.1739 11.3437C14.2283 11.5318 13.3596 11.9961 12.6779 12.6779C11.9961 13.3596 11.5318 14.2283 11.3437 15.1739C11.1556 16.1196 11.2521 17.0998 11.6211 17.9906C11.9901 18.8814 12.6149 19.6427 13.4166 20.1784C14.2182 20.714 15.1605 20.9999 16.1245 21C16.877 20.9989 17.6193 20.8263 18.295 20.4952C18.667 20.313 19.1163 20.4668 19.2985 20.8388C19.4807 21.2108 19.3269 21.66 18.955 21.8423C18.0742 22.2737 17.1067 22.4987 16.126 22.5H16.125C14.8641 22.5 13.6316 22.1261 12.5832 21.4256C11.5349 20.7251 10.7178 19.7295 10.2353 18.5646C9.75276 17.3997 9.62652 16.1179 9.8725 14.8813C10.1185 13.6447 10.7256 12.5088 11.6172 11.6172C12.5088 10.7256 13.6447 10.1185 14.8813 9.8725C16.1179 9.62652 17.3997 9.75276 18.5646 10.2353C19.7295 10.7178 20.7251 11.5349 21.4256 12.5832C22.1258 13.6312 22.4997 14.8631 22.5 16.1234L22.5 17.3717L22.5 17.375C22.5 17.9883 22.2564 18.5765 21.8227 19.0102C21.389 19.4438 20.8008 19.6875 20.1875 19.6875C19.5742 19.6875 18.986 19.4438 18.5523 19.0102C18.4282 18.8861 18.3197 18.7493 18.228 18.603C17.6612 19.0845 16.927 19.375 16.125 19.375C14.3301 19.375 12.875 17.9199 12.875 16.125C12.875 14.33 14.3301 12.875 16.125 12.875C17.92 12.875 19.375 14.33 19.375 16.125C19.375 16.1297 19.375 16.1344 19.375 16.1391V17.375ZM14.375 16.125C14.375 15.1585 15.1585 14.375 16.125 14.375C17.0897 14.375 17.872 15.1554 17.875 16.1193C17.875 16.1212 17.875 16.1231 17.875 16.125V16.1353C17.8694 17.0971 17.0881 17.875 16.125 17.875C15.1585 17.875 14.375 17.0915 14.375 16.125Z" fill="#555962"/>
</svg>
