<svg width="32" height="32" viewBox="0 0 32 32" fill="none" xmlns="http://www.w3.org/2000/svg">
<path fill-rule="evenodd" clip-rule="evenodd" d="M16 3C12.6863 3 10 5.68629 10 9C10 12.3137 12.6863 15 16 15C19.3137 15 22 12.3137 22 9C22 5.68629 19.3137 3 16 3ZM12 9C12 6.79086 13.7909 5 16 5C18.2091 5 20 6.79086 20 9C20 11.2091 18.2091 13 16 13C13.7909 13 12 11.2091 12 9Z" fill="#4C519E"/>
<path fill-rule="evenodd" clip-rule="evenodd" d="M20.9239 16.4405C19.8305 16.1338 17.866 16.0013 16.0145 16C14.1628 15.9987 12.1886 16.1285 11.0761 16.4405C6.46638 17.7333 4 21.1805 4 25.25V26C4 27.6569 5.34315 29 7 29H25C26.6569 29 28 27.6569 28 26V25.25C28 21.1805 25.5336 17.7333 20.9239 16.4405ZM11.6162 18.3662C12.4395 18.1353 14.1697 17.9987 16.0131 18C17.8568 18.0013 19.5782 18.1402 20.3838 18.3662C24.1712 19.4284 26 22.1189 26 25.25V26C26 26.5523 25.5523 27 25 27H7C6.44772 27 6 26.5523 6 26V25.25C6 22.1189 7.82883 19.4284 11.6162 18.3662Z" fill="#4C519E"/>
</svg>
