<svg width="32" height="32" viewBox="0 0 32 32" fill="none" xmlns="http://www.w3.org/2000/svg">
<g clip-path="url(#clip0_842_1199)">
<path d="M0 6H31.9833V25.9446H0V6Z" fill="white"/>
<path d="M14.3923 17.9607V25.9446H17.591V17.9607H31.9834V13.9734H17.591V6H14.3923V13.9734H0V17.9607H14.3923Z" fill="#CF142B"/>
<path d="M18.6578 12.456V6H29.013L18.6578 12.456ZM18.6578 19.4885V25.9446H29.013L18.6578 19.4885ZM13.3259 19.4885V25.9446H2.97078L13.3259 19.4885ZM13.3259 12.456V6H2.97078L13.3259 12.456ZM0.000328064 7.85399V12.648H7.68961L0.000328064 7.85399ZM31.9835 7.85399V12.648H24.2942L31.9835 7.85399ZM31.9835 24.0906V19.2966H24.2942L31.9835 24.0906ZM0.000328064 24.0906V19.2966H7.68961L0.000328064 24.0906Z" fill="#00247D"/>
<path d="M31.9833 6H30.2068L19.5627 12.648H21.3391L32 6H31.9833ZM12.4206 19.2962H10.6442L0 25.9442H1.77643L12.4373 19.2962H12.4206ZM8.88192 12.6532H10.6582L0 6V7.11503L8.88192 12.6532ZM23.0958 19.2936H21.3194L31.9776 25.9468V24.8318L23.0958 19.2936Z" fill="#CF142B"/>
</g>
<defs>
<clipPath id="clip0_842_1199">
<rect y="6" width="32" height="19.9468" rx="2" fill="white"/>
</clipPath>
</defs>
</svg>
