<svg width="32" height="32" viewBox="0 0 32 32" fill="none" xmlns="http://www.w3.org/2000/svg">
<path fill-rule="evenodd" clip-rule="evenodd" d="M6.64883 3C6.64883 2.44772 7.09655 2 7.64883 2H24.3512C24.9035 2 25.3512 2.44772 25.3512 3C25.3512 5.60022 24.3603 9.01689 22.7845 11.7855C21.9921 13.1776 21.0237 14.4566 19.9069 15.3986C19.6476 15.6173 19.3773 15.8203 19.0967 16.003C19.3731 16.1839 19.6396 16.3844 19.8954 16.6002C21.0103 17.5411 21.9794 18.8187 22.7735 20.21C24.3526 22.9768 25.3512 26.3938 25.3512 29C25.3512 29.5523 24.9035 30 24.3512 30H7.64883C7.09655 30 6.64883 29.5523 6.64883 29C6.64883 26.3953 7.63958 22.9786 9.2156 20.2108C10.008 18.8192 10.9765 17.541 12.0934 16.5998C12.3526 16.3813 12.6229 16.1786 12.9034 15.9962C12.6268 15.8151 12.3602 15.6143 12.1043 15.3982C10.9895 14.4566 10.0204 13.1781 9.22644 11.7864C7.6475 9.0187 6.64883 5.60167 6.64883 3ZM10.5373 10C10.6732 10.2698 10.8154 10.5355 10.9636 10.7953C11.681 12.0527 12.5115 13.1242 13.3948 13.8702C14.2779 14.6161 15.1558 14.9907 16 14.9907C16.8526 14.9907 17.7341 14.6149 18.6174 13.8698C19.5015 13.1242 20.3308 12.0533 21.0463 10.7962C21.1944 10.5361 21.3364 10.2702 21.4719 10H10.5373ZM9.67148 8H22.3345C22.8409 6.61618 23.1745 5.22086 23.2979 4H8.70257C8.82677 5.22056 9.1626 6.6159 9.67148 8ZM23.0456 26.443C22.5026 25.757 21.8317 25.1611 21.0934 24.6747C19.6225 23.7058 17.8092 23.1191 16 23.1191C14.1918 23.1191 12.3786 23.7029 10.9071 24.6709C10.1677 25.1574 9.49601 25.7538 8.95267 26.4413C9.32275 24.7253 10.0164 22.8463 10.9536 21.2005C11.669 19.9441 12.4983 18.8741 13.3823 18.1291C13.9242 17.6724 14.4655 17.3546 15 17.1771V20C15 20.5523 15.4477 21 16 21C16.5523 21 17 20.5523 17 20V17.1793C17.529 17.357 18.0663 17.6737 18.6055 18.1287C19.4888 18.874 20.3192 19.9446 21.0365 21.2013C21.9763 22.8479 22.6734 24.7272 23.0456 26.443ZM21.7082 28C21.2915 27.3812 20.7061 26.8146 19.9932 26.3449C18.8265 25.5764 17.3921 25.1191 16 25.1191C14.6069 25.1191 13.1725 25.5746 12.0063 26.3418C11.2924 26.8115 10.7063 27.3789 10.2894 28H21.7082Z" fill="black"/>
</svg>
