<svg width="25" height="24" viewBox="0 0 25 24" fill="none" xmlns="http://www.w3.org/2000/svg">
<path d="M9.5 9.75C9.91421 9.75 10.25 10.0858 10.25 10.5V18C10.25 18.4142 9.91421 18.75 9.5 18.75C9.08579 18.75 8.75 18.4142 8.75 18V10.5C8.75 10.0858 9.08579 9.75 9.5 9.75Z" fill="#4C519E"/>
<path d="M13.25 10.5C13.25 10.0858 12.9142 9.75 12.5 9.75C12.0858 9.75 11.75 10.0858 11.75 10.5V18C11.75 18.4142 12.0858 18.75 12.5 18.75C12.9142 18.75 13.25 18.4142 13.25 18V10.5Z" fill="#4C519E"/>
<path d="M15.5 9.75C15.9142 9.75 16.25 10.0858 16.25 10.5V18C16.25 18.4142 15.9142 18.75 15.5 18.75C15.0858 18.75 14.75 18.4142 14.75 18V10.5C14.75 10.0858 15.0858 9.75 15.5 9.75Z" fill="#4C519E"/>
<path fill-rule="evenodd" clip-rule="evenodd" d="M10.25 1.5C9.85227 1.5 9.47071 1.65794 9.18934 1.9393C8.90801 2.22064 8.75 2.60221 8.75 3V4.5H4.25C3.83579 4.5 3.5 4.83579 3.5 5.25C3.5 5.66421 3.83579 6 4.25 6H5V18.75C5 20.8211 6.67893 22.5 8.75 22.5H16.25C18.3211 22.5 20 20.8211 20 18.75V6H20.75C21.1642 6 21.5 5.66421 21.5 5.25C21.5 4.83579 21.1642 4.5 20.75 4.5H16.25V3C16.25 2.60221 16.092 2.22064 15.8107 1.9393C15.5293 1.65794 15.1477 1.5 14.75 1.5H10.25ZM18.5 6H6.5V18.75C6.5 19.9926 7.50736 21 8.75 21H16.25C17.4926 21 18.5 19.9926 18.5 18.75V6ZM14.75 4.5V3H10.25V4.5H14.75Z" fill="#4C519E"/>
</svg>
