<svg width="201" height="100" viewBox="0 0 201 100" fill="none" xmlns="http://www.w3.org/2000/svg">
<g clip-path="url(#clip0_2470_40593)">
<g filter="url(#filter0_d_2470_40593)">
<path d="M69.1017 45.9732C69.4634 41.5697 73.3263 38.2932 77.7297 38.6549L192.575 48.0875C196.979 48.4491 200.255 52.312 199.894 56.7155L196.947 92.5947C196.585 96.9981 192.722 100.275 188.319 99.913L73.4732 90.4803C69.0697 90.1187 65.7932 86.2558 66.1549 81.8523L69.1017 45.9732Z" fill="#6868AC" shape-rendering="crispEdges"/>
<path d="M76.7474 50.6145C76.9282 48.4128 78.8597 46.7745 81.0614 46.9554L152.055 52.7862C154.256 52.9671 155.895 54.8985 155.714 57.1002C155.533 59.302 153.601 60.9402 151.4 60.7594L80.4065 54.9285C78.2048 54.7477 76.5666 52.8162 76.7474 50.6145Z" fill="#B7B4D7"/>
<path d="M75.6013 64.5676C75.7821 62.3659 77.7136 60.7276 79.9153 60.9085L142.704 66.0655C144.906 66.2463 146.544 68.1778 146.363 70.3795C146.182 72.5812 144.251 74.2195 142.049 74.0387L79.2604 68.8816C77.0587 68.7008 75.4204 66.7694 75.6013 64.5676Z" fill="#B7B4D7"/>
<path d="M74.4553 78.5208C74.6361 76.319 76.5676 74.6808 78.7693 74.8616L148.534 80.5916C150.736 80.7725 152.374 82.7039 152.194 84.9056C152.013 87.1074 150.081 88.7456 147.88 88.5648L78.1144 82.8348C75.9127 82.6539 74.2745 80.7225 74.4553 78.5208Z" fill="#B7B4D7"/>
<rect x="163.687" y="57.7559" width="28" height="28" rx="14" transform="rotate(4.69534 163.687 57.7559)" fill="#E2E0EF"/>
<path fill-rule="evenodd" clip-rule="evenodd" d="M174.077 65.6323C173.802 65.6097 173.56 65.8145 173.537 66.0897L173.497 66.588L172.5 66.5061C171.674 66.4383 170.95 67.0527 170.882 67.8783L170.064 77.8448C169.996 78.6704 170.61 79.3947 171.436 79.4625L178.412 80.0355C179.238 80.1033 179.962 79.489 180.03 78.6633L180.214 76.4209C180.237 76.1457 180.032 75.9042 179.757 75.8816C179.482 75.859 179.24 76.0638 179.218 76.339L179.033 78.5815C179.011 78.8567 178.769 79.0615 178.494 79.0389L171.518 78.4659C171.242 78.4433 171.038 78.2018 171.06 77.9266L171.879 67.9602C171.901 67.685 172.143 67.4802 172.418 67.5028L173.415 67.5847L173.374 68.083C173.351 68.3582 173.556 68.5996 173.831 68.6222L177.818 68.9497C178.093 68.9723 178.334 68.7675 178.357 68.4923L178.398 67.9939L179.395 68.0758C179.67 68.0984 179.875 68.3398 179.852 68.615L179.831 68.8642C179.809 69.1394 180.014 69.3809 180.289 69.4035C180.564 69.4261 180.806 69.2213 180.828 68.9461L180.849 68.6969C180.916 67.8713 180.302 67.147 179.476 67.0792L178.48 66.9973L178.521 66.499C178.543 66.2238 178.339 65.9823 178.063 65.9597L174.077 65.6323ZM177.483 66.9154L177.401 67.9121L174.411 67.6665L174.493 66.6699L177.483 66.9154Z" fill="#4C519E"/>
<path fill-rule="evenodd" clip-rule="evenodd" d="M182.167 69.4562C182.081 69.3542 181.959 69.2904 181.826 69.2789C181.694 69.2674 181.562 69.3093 181.461 69.3951L175.779 74.1961C175.709 74.2548 175.657 74.3313 175.628 74.4175L174.966 76.3698C174.909 76.5362 174.944 76.7199 175.058 76.8538C175.172 76.9878 175.347 77.0523 175.52 77.0238L177.555 76.6892C177.644 76.6744 177.728 76.6357 177.797 76.5771L183.459 71.7745C183.669 71.5967 183.695 71.2831 183.519 71.0723L182.167 69.4562ZM176.18 75.9018L176.53 74.8702L181.722 70.4832L182.433 71.3331L177.256 75.7249L176.18 75.9018Z" fill="#4C519E"/>
<path d="M172.548 72.0286C172.571 71.7534 172.812 71.5486 173.087 71.5712L175.579 71.7759C175.854 71.7985 176.059 72.0399 176.036 72.3151C176.014 72.5903 175.772 72.7951 175.497 72.7725L173.005 72.5679C172.73 72.5453 172.525 72.3038 172.548 72.0286Z" fill="#4C519E"/>
<path d="M173.251 69.5779C172.976 69.5553 172.734 69.7601 172.712 70.0353C172.689 70.3105 172.894 70.552 173.169 70.5746L177.654 70.9429C177.929 70.9655 178.171 70.7608 178.193 70.4855C178.216 70.2103 178.011 69.9689 177.736 69.9463L173.251 69.5779Z" fill="#4C519E"/>
</g>
<g filter="url(#filter1_d_2470_40593)">
<path d="M1.54471 24.3856C0.967732 20.0052 4.05105 15.9864 8.43149 15.4094L117.49 1.04464C121.87 0.467658 125.889 3.55098 126.466 7.93142L131.167 43.6231C131.744 48.0036 128.661 52.0224 124.28 52.5993L15.2221 66.9641C10.8417 67.5411 6.82288 64.4578 6.2459 60.0773L1.54471 24.3856Z" fill="#F8F8FB" shape-rendering="crispEdges"/>
<rect x="9.99854" y="27.3066" width="28" height="28" rx="14" transform="rotate(-7.50361 9.99854 27.3066)" fill="#6868AC"/>
<path fill-rule="evenodd" clip-rule="evenodd" d="M24.858 32.9147C23.2154 33.1311 22.0591 34.6381 22.2755 36.2808C22.4919 37.9235 23.9989 39.0797 25.6416 38.8633C27.2842 38.647 28.4405 37.1399 28.2241 35.4973C28.0078 33.8546 26.5007 32.6983 24.858 32.9147ZM23.2669 36.1502C23.1227 35.0551 23.8935 34.0504 24.9886 33.9061C26.0837 33.7619 27.0884 34.5327 27.2327 35.6278C27.3769 36.723 26.6061 37.7276 25.511 37.8719C24.4159 38.0161 23.4112 37.2453 23.2669 36.1502Z" fill="#D3D0E7"/>
<path fill-rule="evenodd" clip-rule="evenodd" d="M28.1765 39.2559C27.6144 39.1753 26.632 39.2379 25.7141 39.3581C24.7961 39.4784 23.8259 39.6716 23.2948 39.8989C21.0941 40.8408 20.0965 42.7107 20.3622 44.728L20.4112 45.0998C20.5194 45.9211 21.2729 46.4992 22.0942 46.391L31.0172 45.2157C31.8385 45.1076 32.4166 44.354 32.3084 43.5327L32.2595 43.1609C31.9937 41.1436 30.546 39.5958 28.1765 39.2559ZM23.6882 40.8182C24.0813 40.65 24.9301 40.4694 25.844 40.3496C26.758 40.2299 27.6204 40.1864 28.0345 40.2458C29.9813 40.525 31.0636 41.7393 31.268 43.2915L31.317 43.6633C31.3531 43.9371 31.1604 44.1882 30.8866 44.2243L21.9636 45.3996C21.6899 45.4357 21.4387 45.243 21.4026 44.9692L21.3537 44.5974C21.1492 43.0452 21.8801 41.5921 23.6882 40.8182Z" fill="#D3D0E7"/>
<path d="M45.6903 22.6054C45.4018 20.4152 46.9435 18.4058 49.1337 18.1173L72.9282 14.9832C75.1184 14.6947 77.1278 16.2363 77.4163 18.4266C77.7048 20.6168 76.1631 22.6262 73.9729 22.9147L50.1784 26.0488C47.9882 26.3373 45.9788 24.7956 45.6903 22.6054Z" fill="#D3D0E7"/>
<path d="M47.5184 36.4853C47.23 34.2951 48.7716 32.2857 50.9618 31.9972L99.0465 25.6636C101.237 25.3751 103.246 26.9168 103.535 29.107C103.823 31.2972 102.281 33.3066 100.091 33.5951L52.0066 39.9287C49.8163 40.2172 47.8069 38.6755 47.5184 36.4853Z" fill="#D3D0E7"/>
<path d="M49.3468 50.3661C49.0583 48.1759 50.6 46.1665 52.7902 45.878L87.4905 41.3074C89.6807 41.0189 91.6901 42.5606 91.9786 44.7508C92.2671 46.941 90.7254 48.9504 88.5352 49.2389L53.8349 53.8095C51.6447 54.098 49.6353 52.5564 49.3468 50.3661Z" fill="#D3D0E7"/>
<rect x="112.586" y="9.75977" width="6" height="6" rx="3" transform="rotate(-7.50361 112.586 9.75977)" fill="#9290C3"/>
</g>
<path d="M142.438 27.064C142.955 27.064 143.375 26.6443 143.375 26.1265C143.375 25.6087 142.955 25.189 142.438 25.189C141.92 25.189 141.5 25.6087 141.5 26.1265C141.5 26.6443 141.92 27.064 142.438 27.064Z" fill="#9290C3"/>
<path d="M147.438 26.1257C147.438 26.6435 147.018 27.0632 146.5 27.0632C145.982 27.0632 145.562 26.6435 145.562 26.1257C145.562 25.6079 145.982 25.1882 146.5 25.1882C147.018 25.1882 147.438 25.6079 147.438 26.1257Z" fill="#9290C3"/>
<path d="M150.562 27.0625C151.08 27.0625 151.5 26.6428 151.5 26.125C151.5 25.6072 151.08 25.1875 150.562 25.1875C150.045 25.1875 149.625 25.6072 149.625 26.125C149.625 26.6428 150.045 27.0625 150.562 27.0625Z" fill="#9290C3"/>
<path fill-rule="evenodd" clip-rule="evenodd" d="M141.5 19.875C139.774 19.875 138.375 21.2741 138.375 23V29.25C138.375 30.9759 139.774 32.375 141.5 32.375H142.125V35.5C142.125 35.7577 142.283 35.989 142.523 36.0825C142.764 36.1759 143.037 36.1123 143.211 35.9223L146.462 32.375H151.5C153.226 32.375 154.625 30.9759 154.625 29.25V23C154.625 21.2741 153.226 19.875 151.5 19.875H141.5ZM139.625 23C139.625 21.9645 140.464 21.125 141.5 21.125H151.5C152.536 21.125 153.375 21.9645 153.375 23V29.25C153.375 30.2855 152.536 31.125 151.5 31.125H146.188C146.012 31.125 145.845 31.1985 145.727 31.3277L143.375 33.8932V31.75C143.375 31.4048 143.095 31.125 142.75 31.125H141.5C140.464 31.125 139.625 30.2855 139.625 29.25V23Z" fill="#9290C3"/>
<path fill-rule="evenodd" clip-rule="evenodd" d="M40.125 73.875C39.0895 73.875 38.25 74.7145 38.25 75.75V83.25C38.25 84.2855 39.0895 85.125 40.125 85.125H49.5C50.5355 85.125 51.375 84.2855 51.375 83.25V81.4488L54.8455 83.184C55.0392 83.2809 55.2693 83.2705 55.4536 83.1567C55.6378 83.0428 55.75 82.8416 55.75 82.625V76.375C55.75 76.1584 55.6378 75.9572 55.4536 75.8433C55.2693 75.7295 55.0392 75.7191 54.8455 75.816L51.375 77.5512V75.75C51.375 74.7145 50.5355 73.875 49.5 73.875H40.125ZM50.125 78.5501C50.1248 78.5587 50.1248 78.5673 50.125 78.5759V80.4241C50.1248 80.4327 50.1248 80.4413 50.125 80.4499V83.25C50.125 83.5952 49.8452 83.875 49.5 83.875H40.125C39.7798 83.875 39.5 83.5952 39.5 83.25V75.75C39.5 75.4048 39.7798 75.125 40.125 75.125H49.5C49.8452 75.125 50.125 75.4048 50.125 75.75V78.5501ZM51.375 80.0512V78.9488L54.5 77.3863V81.6137L51.375 80.0512Z" fill="#9290C3"/>
</g>
<defs>
<filter id="filter0_d_2470_40593" x="62.5" y="36" width="141.048" height="68.5674" filterUnits="userSpaceOnUse" color-interpolation-filters="sRGB">
<feFlood flood-opacity="0" result="BackgroundImageFix"/>
<feColorMatrix in="SourceAlpha" type="matrix" values="0 0 0 0 0 0 0 0 0 0 0 0 0 0 0 0 0 0 127 0" result="hardAlpha"/>
<feOffset dy="1"/>
<feGaussianBlur stdDeviation="1.5"/>
<feComposite in2="hardAlpha" operator="out"/>
<feColorMatrix type="matrix" values="0 0 0 0 0.184314 0 0 0 0 0.192157 0 0 0 0 0.219608 0 0 0 0.18 0"/>
<feBlend mode="normal" in2="BackgroundImageFix" result="effect1_dropShadow_2470_40593"/>
<feBlend mode="normal" in="SourceGraphic" in2="effect1_dropShadow_2470_40593" result="shape"/>
</filter>
<filter id="filter1_d_2470_40593" x="-2.5" y="-2" width="137.712" height="74.0088" filterUnits="userSpaceOnUse" color-interpolation-filters="sRGB">
<feFlood flood-opacity="0" result="BackgroundImageFix"/>
<feColorMatrix in="SourceAlpha" type="matrix" values="0 0 0 0 0 0 0 0 0 0 0 0 0 0 0 0 0 0 127 0" result="hardAlpha"/>
<feOffset dy="1"/>
<feGaussianBlur stdDeviation="1.5"/>
<feComposite in2="hardAlpha" operator="out"/>
<feColorMatrix type="matrix" values="0 0 0 0 0.184314 0 0 0 0 0.192157 0 0 0 0 0.219608 0 0 0 0.18 0"/>
<feBlend mode="normal" in2="BackgroundImageFix" result="effect1_dropShadow_2470_40593"/>
<feBlend mode="normal" in="SourceGraphic" in2="effect1_dropShadow_2470_40593" result="shape"/>
</filter>
<clipPath id="clip0_2470_40593">
<rect width="200" height="100" fill="white" transform="translate(0.5)"/>
</clipPath>
</defs>
</svg>
