<svg width="32" height="32" viewBox="0 0 32 32" fill="none" xmlns="http://www.w3.org/2000/svg">
    <path
        d="M4 23C4 25.7614 6.23858 28 9 28H23C25.7614 28 28 25.7614 28 23V18C28 17.4477 27.5523 17 27 17C26.4477 17 26 17.4477 26 18V23C26 24.6569 24.6569 26 23 26H9C7.34315 26 6 24.6569 6 23L6 18C6 17.4477 5.55229 17 5 17C4.44772 17 4 17.4477 4 18L4 23Z"
        fill="black" />
    <path
        d="M20.7071 15.2929C21.0976 15.6834 21.0976 16.3166 20.7071 16.7071L16.7071 20.7071C16.3166 21.0976 15.6834 21.0976 15.2929 20.7071L11.2929 16.7071C10.9024 16.3166 10.9024 15.6834 11.2929 15.2929C11.6834 14.9024 12.3166 14.9024 12.7071 15.2929L15 17.5858V5C15 4.44772 15.4477 4 16 4C16.5523 4 17 4.44772 17 5V17.5858L19.2929 15.2929C19.6834 14.9024 20.3166 14.9024 20.7071 15.2929Z"
        fill="black" />
</svg>
