<svg width="32" height="32" viewBox="0 0 32 32" fill="none" xmlns="http://www.w3.org/2000/svg">
    <path fill-rule="evenodd" clip-rule="evenodd"
        d="M14.5 16C13.1193 16 12 17.1193 12 18.5C12 19.8807 13.1193 21 14.5 21C15.8807 21 17 19.8807 17 18.5C17 17.1193 15.8807 16 14.5 16ZM14 18.5C14 18.2239 14.2239 18 14.5 18C14.7761 18 15 18.2239 15 18.5C15 18.7761 14.7761 19 14.5 19C14.2239 19 14 18.7761 14 18.5Z"
        fill="black" />
    <path fill-rule="evenodd" clip-rule="evenodd"
        d="M20 23H26C27.6569 23 29 21.6569 29 20V7C29 5.34605 27.6642 4 26.0045 4H4.00011C4.00009 4 4.00013 4 4.00011 4C3.80301 4.00001 3.60727 4.05826 3.43937 4.17194C3.1646 4.35797 3 4.66818 3 5V23C3 23.4089 3.24895 23.7766 3.62861 23.9285L15.8858 28.8314C17.8564 29.6196 20 28.1683 20 26.046V23ZM9.19255 6H26.0045C26.5538 6 27 6.44481 27 7V20C27 20.5523 26.5523 21 26 21H20V16H24C24.5523 16 25 15.5523 25 15C25 14.4477 24.5523 14 24 14H20V12.3541C20 11.8732 19.8852 11.4113 19.6771 11H24C24.5523 11 25 10.5523 25 10C25 9.44772 24.5523 9 24 9H16.6925L9.19255 6ZM5 6.47704V22.323L16.6286 26.9744C17.2855 27.2372 18 26.7534 18 26.046V12.3541C18 11.9452 17.751 11.5775 17.3714 11.4256L5 6.47704Z"
        fill="black" />
</svg>
