<svg width="32" height="32" viewBox="0 0 32 32" fill="none" xmlns="http://www.w3.org/2000/svg">
    <g clip-path="url(#clip0_2323_1020)">
        <path fill-rule="evenodd" clip-rule="evenodd"
            d="M16 32C24.8366 32 32 24.8366 32 16C32 7.16344 24.8366 0 16 0C7.16344 0 0 7.16344 0 16C0 24.8366 7.16344 32 16 32ZM23.7 12.8375L16.4125 7.37187C16.1681 7.18854 15.8319 7.18854 15.5875 7.37187L8.3 12.8375C7.95377 13.0972 7.75 13.5047 7.75 13.9375V23.5625C7.75 23.9422 8.0578 24.25 8.4375 24.25H13.25C13.6297 24.25 13.9375 23.9422 13.9375 23.5625V18.0625C13.9375 17.6828 14.2453 17.375 14.625 17.375H17.375C17.7547 17.375 18.0625 17.6828 18.0625 18.0625V23.5625C18.0625 23.9422 18.3703 24.25 18.75 24.25H23.5625C23.9422 24.25 24.25 23.9422 24.25 23.5625V13.9375C24.25 13.5047 24.0462 13.0972 23.7 12.8375Z"
            fill="black" />
    </g>
    <defs>
        <clipPath id="clip0_2323_1020">
            <rect width="32" height="32" fill="white" />
        </clipPath>
    </defs>
</svg>
