<svg width="32" height="32" viewBox="0 0 32 32" fill="none" xmlns="http://www.w3.org/2000/svg">
    <path fill-rule="evenodd" clip-rule="evenodd"
        d="M10 2C9.44772 2 9 2.44772 9 3V4H7C5.34314 4 4 5.34315 4 7V27C4 28.6569 5.34315 30 7 30H21C22.6569 30 24 28.6569 24 27V22.5C24 21.9477 23.5523 21.5 23 21.5C22.4477 21.5 22 21.9477 22 22.5V27C22 27.5523 21.5523 28 21 28H7C6.44771 28 6 27.5523 6 27V7C6 6.44771 6.44772 6 7 6H9V7C9 7.55228 9.44772 8 10 8H18C18.5523 8 19 7.55228 19 7V6H21C21.5523 6 22 6.44772 22 7V7.5C22 8.05228 22.4477 8.5 23 8.5C23.5523 8.5 24 8.05228 24 7.5V7C24 5.34315 22.6569 4 21 4H19V3C19 2.44772 18.5523 2 18 2H10ZM17 4V6H11V4H17Z"
        fill="black" />
    <path fill-rule="evenodd" clip-rule="evenodd"
        d="M26.7518 8.29765C26.565 8.10827 26.3103 8.00115 26.0443 8.00001C25.7782 7.99886 25.5227 8.10378 25.3342 8.29155L14.7942 18.7915C14.6654 18.9199 14.574 19.081 14.5298 19.2575L13.5298 23.2575C13.4447 23.5982 13.5445 23.9587 13.7929 24.2071C14.0413 24.4555 14.4018 24.5553 14.7425 24.4701L18.7425 23.4701C18.9184 23.4262 19.0789 23.3353 19.2071 23.2071L29.7071 12.7071C30.0958 12.3184 30.0979 11.6889 29.7118 11.2977L26.7518 8.29765ZM15.8744 22.1256L16.4027 20.0122L26.0339 10.4176L27.5905 11.9953L17.9887 21.597L15.8744 22.1256Z"
        fill="black" />
    <path
        d="M8 15C8 14.4477 8.44772 14 9 14H14C14.5523 14 15 14.4477 15 15C15 15.5523 14.5523 16 14 16H9C8.44772 16 8 15.5523 8 15Z"
        fill="black" />
    <path
        d="M9 10C8.44772 10 8 10.4477 8 11C8 11.5523 8.44772 12 9 12H18C18.5523 12 19 11.5523 19 11C19 10.4477 18.5523 10 18 10H9Z"
        fill="black" />
</svg>
