<svg width="25" height="24" viewBox="0 0 25 24" fill="none" xmlns="http://www.w3.org/2000/svg">
<path d="M3.5 3.75C3.5 2.50736 4.50736 1.5 5.75 1.5H14.75C15.9926 1.5 17 2.50736 17 3.75V6.3125C17 6.72671 16.6642 7.0625 16.25 7.0625C15.8358 7.0625 15.5 6.72671 15.5 6.3125V3.75C15.5 3.33579 15.1642 3 14.75 3H5.75C5.33579 3 5 3.33579 5 3.75V20.25C5 20.6642 5.33579 21 5.75 21H14.75C15.1642 21 15.5 20.6642 15.5 20.25V18.5C15.5 18.0858 15.8358 17.75 16.25 17.75C16.6642 17.75 17 18.0858 17 18.5V20.25C17 21.4926 15.9926 22.5 14.75 22.5H5.75C4.50736 22.5 3.5 21.4926 3.5 20.25L3.5 3.75Z" fill="#4C519E"/>
<path d="M10.25 12C10.25 11.5858 10.5858 11.25 11 11.25H20.4393L18.7197 9.53033C18.4268 9.23744 18.4268 8.76256 18.7197 8.46967C19.0126 8.17678 19.4874 8.17678 19.7803 8.46967L22.7803 11.4697C23.0732 11.7626 23.0732 12.2374 22.7803 12.5303L19.7803 15.5303C19.4874 15.8232 19.0126 15.8232 18.7197 15.5303C18.4268 15.2374 18.4268 14.7626 18.7197 14.4697L20.4393 12.75H11C10.5858 12.75 10.25 12.4142 10.25 12Z" fill="#4C519E"/>
</svg>
