<svg width="32" height="32" viewBox="0 0 32 32" fill="none" xmlns="http://www.w3.org/2000/svg">
<path fill-rule="evenodd" clip-rule="evenodd" d="M17 3C17 2.44772 16.5523 2 16 2C15.4477 2 15 2.44772 15 3V4.04938C9.94668 4.5511 6 8.81465 6 14V19.0858L3.29289 21.7929C3.10536 21.9804 3 22.2348 3 22.5V24.5C3 25.0523 3.44772 25.5 4 25.5H12.0309C12.277 27.4732 13.9602 29 16 29C18.0398 29 19.723 27.4732 19.9691 25.5H28C28.5523 25.5 29 25.0523 29 24.5V22.5C29 22.2348 28.8946 21.9804 28.7071 21.7929L26 19.0858V15C26 14.4477 25.5523 14 25 14C24.4477 14 24 14.4477 24 15V19.5C24 19.7652 24.1054 20.0196 24.2929 20.2071L27 22.9142V23.5H5V22.9142L7.70711 20.2071C7.89464 20.0196 8 19.7652 8 19.5V14C8 9.58172 11.5817 6 16 6C16.6124 6 17.2076 6.06863 17.7787 6.19823C18.3173 6.32044 18.853 5.9829 18.9752 5.4443C19.0974 4.90571 18.7599 4.37002 18.2213 4.24781C17.8224 4.1573 17.4148 4.09068 17 4.04945V3ZM16 27C15.0681 27 14.285 26.3626 14.063 25.5H17.937C17.715 26.3626 16.9319 27 16 27Z" fill="#4C519E"/>
<path fill-rule="evenodd" clip-rule="evenodd" d="M23 5C20.7909 5 19 6.79086 19 9C19 11.2091 20.7909 13 23 13C25.2091 13 27 11.2091 27 9C27 6.79086 25.2091 5 23 5ZM21 9C21 7.89543 21.8954 7 23 7C24.1046 7 25 7.89543 25 9C25 10.1046 24.1046 11 23 11C21.8954 11 21 10.1046 21 9Z" fill="#4C519E"/>
</svg>
