<svg width="32" height="32" viewBox="0 0 32 32" fill="none" xmlns="http://www.w3.org/2000/svg">
    <path
        d="M10 3C10.5523 3 11 3.44772 11 4V7C11 7.55229 10.5523 8 10 8C9.44772 8 9 7.55229 9 7V4C9 3.44772 9.44772 3 10 3Z"
        fill="black" />
    <path
        d="M12 6C12 5.44772 12.4477 5 13 5H19C19.5523 5 20 5.44772 20 6C20 6.55228 19.5523 7 19 7H13C12.4477 7 12 6.55228 12 6Z"
        fill="black" />
    <path
        d="M23 4C23 3.44772 22.5523 3 22 3C21.4477 3 21 3.44772 21 4V7C21 7.55228 21.4477 8 22 8C22.5523 8 23 7.55228 23 7V4Z"
        fill="black" />
    <path
        d="M7 16.5C7 15.6716 7.67157 15 8.5 15C9.32843 15 10 15.6716 10 16.5C10 17.3284 9.32843 18 8.5 18C7.67157 18 7 17.3284 7 16.5Z"
        fill="black" />
    <path
        d="M13.5 15C12.6716 15 12 15.6716 12 16.5C12 17.3284 12.6716 18 13.5 18C14.3284 18 15 17.3284 15 16.5C15 15.6716 14.3284 15 13.5 15Z"
        fill="black" />
    <path
        d="M17 16.5C17 15.6716 17.6716 15 18.5 15C19.3284 15 20 15.6716 20 16.5C20 17.3284 19.3284 18 18.5 18C17.6716 18 17 17.3284 17 16.5Z"
        fill="black" />
    <path
        d="M23.5 15C22.6716 15 22 15.6716 22 16.5C22 17.3284 22.6716 18 23.5 18C24.3284 18 25 17.3284 25 16.5C25 15.6716 24.3284 15 23.5 15Z"
        fill="black" />
    <path
        d="M7 21.5C7 20.6716 7.67157 20 8.5 20C9.32843 20 10 20.6716 10 21.5C10 22.3284 9.32843 23 8.5 23C7.67157 23 7 22.3284 7 21.5Z"
        fill="black" />
    <path
        d="M18.5 20C17.6716 20 17 20.6716 17 21.5C17 22.3284 17.6716 23 18.5 23C19.3284 23 20 22.3284 20 21.5C20 20.6716 19.3284 20 18.5 20Z"
        fill="black" />
    <path
        d="M22 21.5C22 20.6716 22.6716 20 23.5 20C24.3284 20 25 20.6716 25 21.5C25 22.3284 24.3284 23 23.5 23C22.6716 23 22 22.3284 22 21.5Z"
        fill="black" />
    <path
        d="M13.5 20C12.6716 20 12 20.6716 12 21.5C12 22.3284 12.6716 23 13.5 23C14.3284 23 15 22.3284 15 21.5C15 20.6716 14.3284 20 13.5 20Z"
        fill="black" />
    <path fill-rule="evenodd" clip-rule="evenodd"
        d="M4 10V8C4 7.44772 4.44772 7 5 7H7C7.55228 7 8 6.55228 8 6C8 5.44772 7.55228 5 7 5H5C3.34315 5 2 6.34315 2 8V25C2 26.6569 3.34315 28 5 28H27C28.6569 28 30 26.6569 30 25L30 11L30 8C30 6.34315 28.6569 5 27 5H25C24.4477 5 24 5.44772 24 6C24 6.55228 24.4477 7 25 7H27C27.5523 7 28 7.44771 28 8V10H4ZM4 12V25C4 25.5523 4.44772 26 5 26H27C27.5523 26 28 25.5523 28 25V12H4Z"
        fill="black" />
</svg>
