<svg width="32" height="32" viewBox="0 0 32 32" fill="none" xmlns="http://www.w3.org/2000/svg">
    <path fill-rule="evenodd" clip-rule="evenodd"
        d="M14.7771 3.18119C15.4974 2.62462 16.5026 2.62462 17.2229 3.18119L27.2229 10.9085C27.713 11.2872 28 11.8716 28 12.491V26C28 27.1046 27.1046 28 26 28H20C18.8954 28 18 27.1046 18 26V19H14V26C14 27.1046 13.1046 28 12 28H6C4.89543 28 4 27.1046 4 26V12.491C4 11.8716 4.28699 11.2872 4.77711 10.9085L14.7771 3.18119ZM26 12.491L16 4.76376L6 12.491V26H12V19C12 17.8954 12.8954 17 14 17H18C19.1046 17 20 17.8954 20 19V26H26V12.491Z"
        fill="black" />
</svg>
