<svg width="32" height="32" viewBox="0 0 32 32" fill="none" xmlns="http://www.w3.org/2000/svg">
    <path fill-rule="evenodd" clip-rule="evenodd"
        d="M5 7C3.34315 7 2 8.34315 2 10V22C2 23.6569 3.34315 25 5 25H20C21.6569 25 23 23.6569 23 22V19.118L28.5528 21.8944C28.8628 22.0494 29.2309 22.0329 29.5257 21.8507C29.8206 21.6684 30 21.3466 30 21V11C30 10.6534 29.8206 10.3316 29.5257 10.1494C29.2309 9.96714 28.8628 9.95058 28.5528 10.1056L23 12.882V10C23 8.34315 21.6569 7 20 7H5ZM21 14.4801C20.9997 14.4939 20.9997 14.5076 21 14.5214V17.4786C20.9997 17.4924 20.9997 17.5061 21 17.5199V22C21 22.5523 20.5523 23 20 23H5C4.44772 23 4 22.5523 4 22V10C4 9.44772 4.44772 9 5 9H20C20.5523 9 21 9.44772 21 10V14.4801ZM23 16.882V15.118L28 12.618V19.382L23 16.882Z"
        fill="black" />
</svg>
