<svg width="32" height="32" viewBox="0 0 32 32" fill="none" xmlns="http://www.w3.org/2000/svg">
    <path
        d="M16.5007 5.40073C16.941 5.14607 17.4519 5 18 5C19.6569 5 21 6.34315 21 8C21 8.81892 20.6732 9.55953 20.1406 10.1018C19.7536 10.4959 19.7594 11.129 20.1534 11.516C20.5475 11.903 21.1806 11.8972 21.5676 11.5032C22.4525 10.6021 23 9.36398 23 8C23 5.23858 20.7614 3 18 3C17.0909 3 16.2357 3.24351 15.4993 3.66952C15.0212 3.94607 14.8578 4.55779 15.1344 5.03585C15.4109 5.51392 16.0227 5.67728 16.5007 5.40073Z"
        fill="black" />
    <path fill-rule="evenodd" clip-rule="evenodd"
        d="M14 6C11.2386 6 9 8.23858 9 11C9 13.7614 11.2386 16 14 16C16.7614 16 19 13.7614 19 11C19 8.23858 16.7614 6 14 6ZM11 11C11 9.34315 12.3431 8 14 8C15.6569 8 17 9.34315 17 11C17 12.6569 15.6569 14 14 14C12.3431 14 11 12.6569 11 11Z"
        fill="black" />
    <path fill-rule="evenodd" clip-rule="evenodd"
        d="M18.0777 17.3671C17.1569 17.1089 15.5276 17.0011 14.012 17C12.4962 16.9989 10.8588 17.1045 9.92227 17.3671C6.07591 18.4459 4 21.3351 4 24.75V26C4 27.6569 5.34315 29 7 29H21C22.6569 29 24 27.6569 24 26V24.75C24 21.3351 21.9241 18.4459 18.0777 17.3671ZM10.4623 19.2928C11.1097 19.1113 12.5031 18.999 14.0106 19C15.5183 19.0011 16.9047 19.1153 17.5377 19.2928C20.5616 20.141 22 22.2735 22 24.75V26C22 26.5523 21.5523 27 21 27H7C6.44772 27 6 26.5523 6 26V24.75C6 22.2735 7.43836 20.141 10.4623 19.2928Z"
        fill="black" />
    <path
        d="M19.0027 14.9956C19.0434 14.4448 19.5228 14.0312 20.0736 14.0719C20.8312 14.1278 21.5543 14.2204 22.0777 14.3672C25.9241 15.4459 28 18.3351 28 21.75V25C28 25.5523 27.5523 26 27 26C26.4477 26 26 25.5523 26 25V21.75C26 19.2735 24.5616 17.141 21.5377 16.2929C21.2128 16.2018 20.6519 16.1201 19.9264 16.0665C19.3756 16.0258 18.962 15.5463 19.0027 14.9956Z"
        fill="black" />
</svg>
