<svg width="32" height="32" viewBox="0 0 32 32" fill="none" xmlns="http://www.w3.org/2000/svg">
    <path fill-rule="evenodd" clip-rule="evenodd"
        d="M16 7C13.2386 7 11 9.23858 11 12C11 14.7614 13.2386 17 16 17C18.7614 17 21 14.7614 21 12C21 9.23858 18.7614 7 16 7ZM13 12C13 10.3431 14.3431 9 16 9C17.6569 9 19 10.3431 19 12C19 13.6569 17.6569 15 16 15C14.3431 15 13 13.6569 13 12Z"
        fill="black" />
    <path fill-rule="evenodd" clip-rule="evenodd"
        d="M16 2C13.2618 2 10.7978 2.83309 8.801 4.78487C6.83551 6.70603 5.5 9.75632 5.5 12.5C5.5 17.4752 8.03607 21.8201 10.4696 24.8574C11.6956 26.3876 12.9197 27.6161 13.8377 28.4628C14.2972 28.8866 14.6817 29.2163 14.9535 29.4417C15.0894 29.5544 15.1973 29.6411 15.2725 29.7006C15.31 29.7304 15.3394 29.7534 15.3601 29.7694L15.3844 29.7882L15.3916 29.7936L15.3938 29.7953L15.3946 29.7959C15.3949 29.7962 15.3952 29.7964 16 29L15.3946 29.7959C15.7521 30.0674 16.2473 30.0679 16.6048 29.7964L16 29C16.6048 29.7964 16.6045 29.7966 16.6048 29.7964L16.6062 29.7953L16.6084 29.7936L16.6156 29.7882L16.6399 29.7694C16.6606 29.7534 16.69 29.7304 16.7275 29.7006C16.8027 29.6411 16.9106 29.5544 17.0465 29.4417C17.3183 29.2163 17.7028 28.8866 18.1624 28.4628C19.0803 27.6161 20.3044 26.3876 21.5304 24.8574C23.9639 21.8201 26.5 17.4752 26.5 12.5C26.5 9.75632 25.1645 6.70603 23.199 4.78487C21.2022 2.83309 18.7382 2 16 2ZM16.8064 26.9926C16.4946 27.2802 16.2212 27.5201 16 27.7086C15.7788 27.5201 15.5054 27.2802 15.1936 26.9926C14.3303 26.1964 13.1794 25.0409 12.0304 23.6069C9.71394 20.7156 7.5 16.8106 7.5 12.5C7.5 10.3182 8.6013 7.77679 10.199 6.21513C11.7654 4.68409 13.6991 4 16 4C18.3009 4 20.2346 4.68409 21.801 6.21513C23.3987 7.77679 24.5 10.3182 24.5 12.5C24.5 16.8106 22.2861 20.7156 19.9696 23.6069C18.8206 25.0409 17.6697 26.1964 16.8064 26.9926Z"
        fill="black" />
</svg>
