<svg width="32" height="32" viewBox="0 0 32 32" fill="none" xmlns="http://www.w3.org/2000/svg">
    <path
        d="M8 11C8 10.4477 8.44772 10 9 10H23C23.5523 10 24 10.4477 24 11C24 11.5523 23.5523 12 23 12H9C8.44772 12 8 11.5523 8 11Z"
        fill="black" />
    <path
        d="M9 14C8.44772 14 8 14.4477 8 15C8 15.5523 8.44772 16 9 16H19C19.5523 16 20 15.5523 20 15C20 14.4477 19.5523 14 19 14H9Z"
        fill="black" />
    <path fill-rule="evenodd" clip-rule="evenodd"
        d="M3 8C3 5.23858 5.23858 3 8 3H24C26.7614 3 29 5.23858 29 8V18C29 20.7614 26.7614 23 24 23H15.9399L10.7372 28.6757C10.4585 28.9797 10.0218 29.0815 9.63748 28.932C9.25315 28.7825 9 28.4124 9 28V23H8C5.23858 23 3 20.7614 3 18V8ZM8 5C6.34315 5 5 6.34315 5 8V18C5 19.6569 6.34315 21 8 21H10C10.5523 21 11 21.4477 11 22V25.4292L14.7628 21.3243C14.9523 21.1176 15.2197 21 15.5 21H24C25.6569 21 27 19.6569 27 18V8C27 6.34315 25.6569 5 24 5H8Z"
        fill="black" />
</svg>
