<svg width="40" height="40" viewBox="0 0 40 40" fill="none" xmlns="http://www.w3.org/2000/svg">
    <path
        d="M0 4C0 1.79086 1.79086 0 4 0H36C38.2091 0 40 1.79086 40 4V32L32 40H4C1.79086 40 0 38.2091 0 36V4Z"
        fill="#EFEFF1" />
    <path d="M40 32H34.8593C33.2801 32 32 33.2801 32 34.8593V40L40 32Z" fill="#6A6F7B" />
    <path
        d="M9 20C9 13.9249 13.9249 9 20 9C26.0751 9 31 13.9249 31 20C31 26.0751 26.0751 31 20 31C13.9249 31 9 26.0751 9 20Z"
        fill="#BF4746" />
    <path
        d="M16.5303 15.4697C16.2374 15.1768 15.7626 15.1768 15.4697 15.4697C15.1768 15.7626 15.1768 16.2374 15.4697 16.5303L18.9393 20L15.4697 23.4697C15.1768 23.7626 15.1768 24.2374 15.4697 24.5303C15.7626 24.8232 16.2374 24.8232 16.5303 24.5303L20 21.0607L23.4697 24.5303C23.7626 24.8232 24.2374 24.8232 24.5303 24.5303C24.8232 24.2374 24.8232 23.7626 24.5303 23.4697L21.0607 20L24.5303 16.5303C24.8232 16.2374 24.8232 15.7626 24.5303 15.4697C24.2374 15.1768 23.7626 15.1768 23.4697 15.4697L20 18.9393L16.5303 15.4697Z"
        fill="white" />
</svg>
