<svg width="32" height="32" viewBox="0 0 32 32" fill="none" xmlns="http://www.w3.org/2000/svg">
    <path
        d="M17 12C17 11.4477 16.5523 11 16 11C15.4477 11 15 11.4477 15 12V18C15 18.5523 15.4477 19 16 19C16.5523 19 17 18.5523 17 18V12Z"
        fill="black" />
    <path
        d="M16 21C15.1716 21 14.5 21.6716 14.5 22.5C14.5 23.3284 15.1716 24 16 24C16.8284 24 17.5 23.3284 17.5 22.5C17.5 21.6716 16.8284 21 16 21Z"
        fill="black" />
    <path fill-rule="evenodd" clip-rule="evenodd"
        d="M18.6633 3.9639C17.5439 1.80517 14.4561 1.80517 13.3367 3.9639L2.62665 24.6191C1.59118 26.616 3.04045 29 5.28991 29H26.7101C28.9596 29 30.4088 26.616 29.3734 24.6191L18.6633 3.9639ZM15.1122 4.88453C15.4854 4.16495 16.5146 4.16495 16.8878 4.88453L27.5978 25.5397C27.943 26.2054 27.4599 27 26.7101 27H5.28991C4.54009 27 4.057 26.2054 4.40216 25.5397L15.1122 4.88453Z"
        fill="black" />
</svg>
