<svg width="32" height="32" viewBox="0 0 32 32" fill="none" xmlns="http://www.w3.org/2000/svg">
    <path
        d="M11 4C11 3.44772 10.5523 3 10 3C9.44772 3 9 3.44772 9 4V7C9 7.55229 9.44772 8 10 8C10.5523 8 11 7.55229 11 7V4Z"
        fill="black" />
    <path
        d="M13 5C12.4477 5 12 5.44772 12 6C12 6.55228 12.4477 7 13 7H19C19.5523 7 20 6.55228 20 6C20 5.44772 19.5523 5 19 5H13Z"
        fill="black" />
    <path
        d="M22 3C22.5523 3 23 3.44772 23 4V7C23 7.55228 22.5523 8 22 8C21.4477 8 21 7.55228 21 7V4C21 3.44772 21.4477 3 22 3Z"
        fill="black" />
    <path
        d="M4 8V10H28V8C28 7.44771 27.5523 7 27 7H25C24.4477 7 24 6.55228 24 6C24 5.44772 24.4477 5 25 5H27C28.6569 5 30 6.34315 30 8L30 11L30 18C30 18.5523 29.5523 19 29 19C28.4477 19 28 18.5523 28 18V12H4V25C4 25.5523 4.44772 26 5 26H19C19.5523 26 20 26.4477 20 27C20 27.5523 19.5523 28 19 28H5C3.34315 28 2 26.6569 2 25V8C2 6.34315 3.34315 5 5 5H7C7.55228 5 8 5.44772 8 6C8 6.55228 7.55228 7 7 7H5C4.44772 7 4 7.44772 4 8Z"
        fill="black" />
    <path
        d="M8.5 15C7.67157 15 7 15.6716 7 16.5C7 17.3284 7.67157 18 8.5 18C9.32843 18 10 17.3284 10 16.5C10 15.6716 9.32843 15 8.5 15Z"
        fill="black" />
    <path
        d="M12 16.5C12 15.6716 12.6716 15 13.5 15C14.3284 15 15 15.6716 15 16.5C15 17.3284 14.3284 18 13.5 18C12.6716 18 12 17.3284 12 16.5Z"
        fill="black" />
    <path
        d="M18.5 15C17.6716 15 17 15.6716 17 16.5C17 17.3284 17.6716 18 18.5 18C19.3284 18 20 17.3284 20 16.5C20 15.6716 19.3284 15 18.5 15Z"
        fill="black" />
    <path
        d="M22 16.5C22 15.6716 22.6716 15 23.5 15C24.3284 15 25 15.6716 25 16.5C25 17.3284 24.3284 18 23.5 18C22.6716 18 22 17.3284 22 16.5Z"
        fill="black" />
    <path
        d="M8.5 20C7.67157 20 7 20.6716 7 21.5C7 22.3284 7.67157 23 8.5 23C9.32843 23 10 22.3284 10 21.5C10 20.6716 9.32843 20 8.5 20Z"
        fill="black" />
    <path
        d="M17 21.5C17 20.6716 17.6716 20 18.5 20C19.3284 20 20 20.6716 20 21.5C20 22.3284 19.3284 23 18.5 23C17.6716 23 17 22.3284 17 21.5Z"
        fill="black" />
    <path
        d="M13.5 20C12.6716 20 12 20.6716 12 21.5C12 22.3284 12.6716 23 13.5 23C14.3284 23 15 22.3284 15 21.5C15 20.6716 14.3284 20 13.5 20Z"
        fill="black" />
    <path
        d="M27.4142 25L29.7071 27.2929C30.0976 27.6834 30.0976 28.3166 29.7071 28.7071C29.3166 29.0976 28.6834 29.0976 28.2929 28.7071L26 26.4142L23.7071 28.7071C23.3166 29.0976 22.6834 29.0976 22.2929 28.7071C21.9024 28.3166 21.9024 27.6834 22.2929 27.2929L24.5858 25L22.2929 22.7071C21.9024 22.3166 21.9024 21.6834 22.2929 21.2929C22.6834 20.9024 23.3166 20.9024 23.7071 21.2929L26 23.5858L28.2929 21.2929C28.6834 20.9024 29.3166 20.9024 29.7071 21.2929C30.0976 21.6834 30.0976 22.3166 29.7071 22.7071L27.4142 25Z"
        fill="black" />
</svg>
