<svg width="24" height="24" viewBox="0 0 24 24" fill="none" xmlns="http://www.w3.org/2000/svg">
<path d="M3 3.75C3 2.50736 4.00736 1.5 5.25 1.5H14.25C15.4926 1.5 16.5 2.50736 16.5 3.75V6.3125C16.5 6.72671 16.1642 7.0625 15.75 7.0625C15.3358 7.0625 15 6.72671 15 6.3125V3.75C15 3.33579 14.6642 3 14.25 3H5.25C4.83579 3 4.5 3.33579 4.5 3.75V20.25C4.5 20.6642 4.83579 21 5.25 21H14.25C14.6642 21 15 20.6642 15 20.25V18.5C15 18.0858 15.3358 17.75 15.75 17.75C16.1642 17.75 16.5 18.0858 16.5 18.5V20.25C16.5 21.4926 15.4926 22.5 14.25 22.5H5.25C4.00736 22.5 3 21.4926 3 20.25V3.75Z" fill="white"/>
<path d="M21 12C21 12.4142 20.6642 12.75 20.25 12.75L10.8107 12.75L12.5303 14.4697C12.8232 14.7626 12.8232 15.2374 12.5303 15.5303C12.2374 15.8232 11.7626 15.8232 11.4697 15.5303L8.46967 12.5303C8.17678 12.2374 8.17678 11.7626 8.46967 11.4697L11.4697 8.46967C11.7626 8.17678 12.2374 8.17678 12.5303 8.46967C12.8232 8.76256 12.8232 9.23744 12.5303 9.53033L10.8107 11.25L20.25 11.25C20.6642 11.25 21 11.5858 21 12Z" fill="white"/>
</svg>
