<svg width="24" height="24" viewBox="0 0 24 24" fill="none" xmlns="http://www.w3.org/2000/svg">
<path d="M7.875 4.5C7.875 4.08579 8.21079 3.75 8.625 3.75H10.875C11.2892 3.75 11.625 4.08579 11.625 4.5C11.625 4.91421 11.2892 5.25 10.875 5.25H8.625C8.21079 5.25 7.875 4.91421 7.875 4.5Z" fill="#555962"/>
<path d="M9.75 18C9.12868 18 8.625 18.5037 8.625 19.125C8.625 19.7463 9.12868 20.25 9.75 20.25C10.3713 20.25 10.875 19.7463 10.875 19.125C10.875 18.5037 10.3713 18 9.75 18Z" fill="#555962"/>
<path d="M13.125 11.9998C13.5392 11.9998 13.875 11.664 13.875 11.2498C13.875 10.8356 13.5392 10.4998 13.125 10.4998C12.7108 10.4998 12.375 10.8356 12.375 11.2498C12.375 11.664 12.7108 11.9998 13.125 11.9998Z" fill="#555962"/>
<path d="M16.875 11.25C16.875 11.6642 16.5392 12 16.125 12C15.7108 12 15.375 11.6642 15.375 11.25C15.375 10.8358 15.7108 10.5 16.125 10.5C16.5392 10.5 16.875 10.8358 16.875 11.25Z" fill="#555962"/>
<path d="M19.125 12C19.5392 12 19.875 11.6642 19.875 11.25C19.875 10.8358 19.5392 10.5 19.125 10.5C18.7108 10.5 18.375 10.8358 18.375 11.25C18.375 11.6642 18.7108 12 19.125 12Z" fill="#555962"/>
<path fill-rule="evenodd" clip-rule="evenodd" d="M5.25 1.5C4.00736 1.5 3 2.50736 3 3.75V20.25C3 21.4926 4.00736 22.5 5.25 22.5H14.25C15.4926 22.5 16.5 21.4926 16.5 20.25V15.9375H20.25C21.4926 15.9375 22.5 14.9301 22.5 13.6875V8.25C22.5 7.00736 21.4926 6 20.25 6H16.5V3.75C16.5 2.50736 15.4926 1.5 14.25 1.5H5.25ZM13.8654 18.5068L15 17.269V20.25C15 20.6642 14.6642 21 14.25 21H5.25C4.83579 21 4.5 20.6642 4.5 20.25V3.75C4.5 3.33579 4.83579 3 5.25 3H14.25C14.6642 3 15 3.33579 15 3.75V6H12C10.7574 6 9.75 7.00736 9.75 8.25V13.6875C9.75 14.9301 10.7574 15.9375 12 15.9375H12.5625V18C12.5625 18.3093 12.7524 18.5869 13.0406 18.699C13.3289 18.8111 13.6564 18.7348 13.8654 18.5068ZM12 7.5C11.5858 7.5 11.25 7.83579 11.25 8.25V13.6875C11.25 14.1017 11.5858 14.4375 12 14.4375H13.3125C13.7267 14.4375 14.0625 14.7733 14.0625 15.1875V16.0719L15.3378 14.6807C15.4798 14.5257 15.6804 14.4375 15.8906 14.4375H20.25C20.6642 14.4375 21 14.1017 21 13.6875V8.25C21 7.83579 20.6642 7.5 20.25 7.5H12Z" fill="#555962"/>
</svg>
