<svg width="32" height="32" viewBox="0 0 32 32" fill="none" xmlns="http://www.w3.org/2000/svg">
    <path fill-rule="evenodd" clip-rule="evenodd"
        d="M4.29289 5.70711C3.90237 5.31658 3.90237 4.68342 4.29289 4.29289C4.68342 3.90237 5.31658 3.90237 5.70711 4.29289L8.41756 7.00335C8.44475 7.00113 8.47224 7 8.5 7H20C21.6569 7 23 8.34315 23 10V12.882L28.5528 10.1056C28.8628 9.95058 29.2309 9.96714 29.5257 10.1494C29.8205 10.3316 30 10.6534 30 11V21C30 21.3466 29.8205 21.6684 29.5257 21.8507C29.2309 22.0329 28.8628 22.0494 28.5528 21.8944L23 19.118V21.5858L27.7071 26.2929C28.0976 26.6834 28.0976 27.3166 27.7071 27.7071C27.3166 28.0976 26.6834 28.0976 26.2929 27.7071L4.29289 5.70711ZM21 19.5858V17.5202C20.9997 17.5063 20.9997 17.4922 21 17.4782V14.5218C20.9997 14.5078 20.9997 14.4938 21 14.4798V10C21 9.44771 20.5523 9 20 9H10.4142L21 19.5858ZM23 16.882V15.118L28 12.618V19.382L23 16.882Z"
        fill="black" />
    <path
        d="M4 8C4.55228 8 5 8.44772 5 9V22C5 22.5523 5.44772 23 6 23H19C19.5523 23 20 23.4477 20 24C20 24.5523 19.5523 25 19 25H6C4.34315 25 3 23.6569 3 22V9C3 8.44772 3.44772 8 4 8Z"
        fill="black" />
</svg>
