<svg width="32" height="32" viewBox="0 0 32 32" fill="none" xmlns="http://www.w3.org/2000/svg">
    <path
        d="M16 8C16.5523 8 17 8.44772 17 9V15.5858L20.8857 19.4714C21.2762 19.862 21.2762 20.4951 20.8857 20.8856C20.4951 21.2762 19.862 21.2762 19.4715 20.8856L15.2966 16.7108C15.2035 16.6187 15.1284 16.5083 15.077 16.3856C15.0251 16.261 14.9994 16.128 15 15.9952"
        fill="black" />
    <path d="M15 15.9952V9C15 8.44772 15.4477 8 16 8" fill="black" />
    <path fill-rule="evenodd" clip-rule="evenodd"
        d="M2 16C2 8.26801 8.26801 2 16 2C23.732 2 30 8.26801 30 16C30 23.732 23.732 30 16 30C8.26801 30 2 23.732 2 16ZM16 4C9.37258 4 4 9.37258 4 16C4 22.6274 9.37258 28 16 28C22.6274 28 28 22.6274 28 16C28 9.37258 22.6274 4 16 4Z"
        fill="black" />
</svg>
