<svg width="40" height="40" viewBox="0 0 40 40" fill="none" xmlns="http://www.w3.org/2000/svg">
    <path
        d="M0 4C0 1.79086 1.79086 0 4 0H36C38.2091 0 40 1.79086 40 4V32L32 40H4C1.79086 40 0 38.2091 0 36V4Z"
        fill="#EFEFF1" />
    <path d="M40 32H34.8593C33.2801 32 32 33.2801 32 34.8593V40L40 32Z" fill="#6A6F7B" />
    <rect x="10" y="10" width="20" height="20" rx="2" fill="#6A6F7B" />
    <path fill-rule="evenodd" clip-rule="evenodd"
        d="M14.25 15C14.25 14.5858 14.5858 14.25 15 14.25H25C25.4142 14.25 25.75 14.5858 25.75 15C25.75 15.4142 25.4142 15.75 25 15.75H15C14.5858 15.75 14.25 15.4142 14.25 15Z"
        fill="white" />
    <path fill-rule="evenodd" clip-rule="evenodd"
        d="M14.25 20C14.25 19.5858 14.5858 19.25 15 19.25H25C25.4142 19.25 25.75 19.5858 25.75 20C25.75 20.4142 25.4142 20.75 25 20.75H15C14.5858 20.75 14.25 20.4142 14.25 20Z"
        fill="white" />
    <path fill-rule="evenodd" clip-rule="evenodd"
        d="M14.25 25C14.25 24.5858 14.5858 24.25 15 24.25H25C25.4142 24.25 25.75 24.5858 25.75 25C25.75 25.4142 25.4142 25.75 25 25.75H15C14.5858 25.75 14.25 25.4142 14.25 25Z"
        fill="white" />
</svg>
