<svg width="32" height="32" viewBox="0 0 32 32" fill="none" xmlns="http://www.w3.org/2000/svg">
    <path
        d="M14 21H14.5V15H14C13.4477 15 13 14.5523 13 14C13 13.4477 13.4477 13 14 13H16.5C17.0523 13 17.5 13.4477 17.5 14V21H18C18.5523 21 19 21.4477 19 22C19 22.5523 18.5523 23 18 23H14C13.4477 23 13 22.5523 13 22C13 21.4477 13.4477 21 14 21Z"
        fill="black" />
    <path
        d="M16 11C16.8284 11 17.5 10.3284 17.5 9.5C17.5 8.67157 16.8284 8 16 8C15.1716 8 14.5 8.67157 14.5 9.5C14.5 10.3284 15.1716 11 16 11Z"
        fill="black" />
    <path fill-rule="evenodd" clip-rule="evenodd"
        d="M16 2C8.26801 2 2 8.26801 2 16C2 23.732 8.26801 30 16 30C23.732 30 30 23.732 30 16C30 8.26801 23.732 2 16 2ZM4 16C4 9.37258 9.37258 4 16 4C22.6274 4 28 9.37258 28 16C28 22.6274 22.6274 28 16 28C9.37258 28 4 22.6274 4 16Z"
        fill="black" />
</svg>
