<svg width="32" height="32" viewBox="0 0 32 32" fill="none" xmlns="http://www.w3.org/2000/svg">
    <path fill-rule="evenodd" clip-rule="evenodd"
        d="M16 11C12.6863 11 10 13.6863 10 17C10 20.3137 12.6863 23 16 23C19.3137 23 22 20.3137 22 17C22 13.6863 19.3137 11 16 11ZM12 17C12 14.7909 13.7909 13 16 13C18.2091 13 20 14.7909 20 17C20 19.2091 18.2091 21 16 21C13.7909 21 12 19.2091 12 17Z"
        fill="black" />
    <path fill-rule="evenodd" clip-rule="evenodd"
        d="M11 5C10.6212 5 10.275 5.214 10.1056 5.55279L8.88197 8H5C3.34315 8 2 9.34315 2 11V24C2 25.6569 3.34315 27 5 27H27C28.6569 27 30 25.6569 30 24V11C30 9.34315 28.6569 8 27 8H23.118L21.8944 5.55279C21.725 5.214 21.3788 5 21 5H11ZM10.3944 9.44721L11.618 7H20.382L21.6056 9.44721C21.775 9.786 22.1212 10 22.5 10H27C27.5523 10 28 10.4477 28 11V24C28 24.5523 27.5523 25 27 25H5C4.44772 25 4 24.5523 4 24V11C4 10.4477 4.44772 10 5 10H9.5C9.87877 10 10.225 9.786 10.3944 9.44721Z"
        fill="black" />
</svg>
