<svg width="32" height="32" viewBox="0 0 32 32" fill="none" xmlns="http://www.w3.org/2000/svg">
    <path
        d="M18.2929 23.2929C17.9024 23.6834 17.9024 24.3166 18.2929 24.7071C18.6834 25.0976 19.3166 25.0976 19.7071 24.7071L27.7071 16.7071C27.8946 16.5196 28 16.2652 28 16C28 15.7348 27.8946 15.4804 27.7071 15.2929L19.7071 7.29289C19.3166 6.90237 18.6834 6.90237 18.2929 7.29289C17.9024 7.68342 17.9024 8.31658 18.2929 8.70711L24.5858 15H5C4.44772 15 4 15.4477 4 16C4 16.5523 4.44772 17 5 17H24.5858L18.2929 23.2929Z"
        fill="black" />
</svg>
