<svg width="32" height="32" viewBox="0 0 32 32" fill="none" xmlns="http://www.w3.org/2000/svg">
    <path
        d="M17 9C17 8.44772 16.5523 8 16 8C15.4477 8 15 8.44772 15 9V17C15 17.5523 15.4477 18 16 18C16.5523 18 17 17.5523 17 17V9Z"
        fill="black" />
    <path
        d="M16 20.5C15.1716 20.5 14.5 21.1716 14.5 22C14.5 22.8284 15.1716 23.5 16 23.5C16.8284 23.5 17.5 22.8284 17.5 22C17.5 21.1716 16.8284 20.5 16 20.5Z"
        fill="black" />
    <path fill-rule="evenodd" clip-rule="evenodd"
        d="M16 2C8.26801 2 2 8.26801 2 16C2 23.732 8.26801 30 16 30C23.732 30 30 23.732 30 16C30 8.26801 23.732 2 16 2ZM4 16C4 9.37258 9.37258 4 16 4C22.6274 4 28 9.37258 28 16C28 22.6274 22.6274 28 16 28C9.37258 28 4 22.6274 4 16Z"
        fill="black" />
</svg>
