<svg width="32" height="32" viewBox="0 0 32 32" fill="none" xmlns="http://www.w3.org/2000/svg">
    <path
        d="M5 4C4.44772 4 4 4.44772 4 5C4 5.55228 4.44772 6 5 6H27C27.5523 6 28 5.55228 28 5C28 4.44772 27.5523 4 27 4H5Z"
        fill="black" />
    <path
        d="M4 10C4 9.44772 4.44772 9 5 9H27C27.5523 9 28 9.44772 28 10C28 10.5523 27.5523 11 27 11H5C4.44772 11 4 10.5523 4 10Z"
        fill="black" />
    <path
        d="M4 15C4 14.4477 4.44772 14 5 14H27C27.5523 14 28 14.4477 28 15C28 15.5523 27.5523 16 27 16H5C4.44772 16 4 15.5523 4 15Z"
        fill="black" />
    <path fill-rule="evenodd" clip-rule="evenodd"
        d="M2 20C2 19.4477 2.44772 19 3 19H13C13.5523 19 14 19.4477 14 20C14 21.1046 14.8954 22 16 22C17.1046 22 18 21.1046 18 20C18 19.4477 18.4477 19 19 19H29C29.5523 19 30 19.4477 30 20V25C30 26.6569 28.6569 28 27 28H5C3.34315 28 2 26.6569 2 25V20ZM19.874 21C19.4299 22.7252 17.8638 24 16 24C14.1362 24 12.5701 22.7252 12.126 21H4V25C4 25.5523 4.44772 26 5 26H27C27.5523 26 28 25.5523 28 25V21H19.874Z"
        fill="black" />
</svg>
