<svg width="32" height="32" viewBox="0 0 32 32" fill="none" xmlns="http://www.w3.org/2000/svg">
    <path fill-rule="evenodd" clip-rule="evenodd"
        d="M25.7929 7.20714C23.422 4.83624 19.578 4.83623 17.2071 7.20713L5.20711 19.2071C3.66463 20.7496 3.66463 23.2505 5.20711 24.7929C6.74958 26.3354 9.25042 26.3354 10.7929 24.7929L21.2929 14.2929C22.0069 13.5789 22.0069 12.4212 21.2929 11.7071C20.5788 10.9931 19.4212 10.9931 18.7071 11.7071L9.70711 20.7071C9.31658 21.0977 8.68342 21.0977 8.29289 20.7071C7.90237 20.3166 7.90237 19.6834 8.29289 19.2929L17.2929 10.2929C18.788 8.79783 21.212 8.79783 22.7071 10.2929C24.2022 11.788 24.2022 14.212 22.7071 15.7071L12.2071 26.2071C9.88358 28.5307 6.11641 28.5307 3.79289 26.2071C1.46937 23.8836 1.46937 20.1164 3.79289 17.7929L15.7929 5.79292C18.9448 2.64097 24.0552 2.64098 27.2071 5.79292C30.3591 8.94487 30.3591 14.0552 27.2071 17.2071L16.7071 27.7071C16.3166 28.0977 15.6834 28.0977 15.2929 27.7071C14.9024 27.3166 14.9024 26.6834 15.2929 26.2929L25.7929 15.7929C28.1638 13.422 28.1638 9.57803 25.7929 7.20714Z"
        fill="black" />
</svg>
