<svg width="32" height="32" viewBox="0 0 32 32" fill="none" xmlns="http://www.w3.org/2000/svg">
    <path
        d="M30 16C30 16.4017 29.7596 16.7644 29.3897 16.9209L3.38967 27.9209C3.02327 28.0759 2.59983 27.999 2.31136 27.725C2.02289 27.451 1.92428 27.0321 2.06024 26.6582L5.33297 17.6582C5.47667 17.263 5.85226 17 6.27276 17L17.0001 17C17.5523 17 18.0001 16.5522 18.0001 16C18.0001 15.4477 17.5523 15 17.0001 15L6.27276 15C5.85225 15 5.47667 14.7369 5.33297 14.3417L2.06024 5.34171C1.92428 4.96781 2.02289 4.54888 2.31136 4.27489C2.59982 4.00091 3.02327 3.92398 3.38967 4.079L29.3897 15.079C29.7596 15.2355 30 15.5982 30 16Z"
        fill="black" />
</svg>
